<svg width="71" height="70" viewBox="0 0 71 70" fill="none" xmlns="http://www.w3.org/2000/svg"><path d="M35.5 56.093c2.347 0 4.25-1.122 4.25-2.506 0-1.385-1.903-2.507-4.25-2.507-2.348 0-4.251 1.122-4.251 2.507 0 1.384 1.903 2.506 4.25 2.506Z" fill="#424242"/><path d="M35.5 13.906c-7.411 0-13.423 5.51-13.423 12.301 0 1.772.534 3.667 1.318 5.337 1.1 2.349 2.3 4.085 2.651 4.725.978 1.779.837 3.653 1.108 4.827.51 2.194 2.035 2.988 8.342 2.988s7.664-.756 8.23-2.777c.387-1.375.01-2.876.985-4.651.351-.64 1.782-2.76 2.886-5.112.784-1.67 1.318-3.565 1.318-5.337.008-6.792-6.004-12.3-13.415-12.3Z" fill="#FFD600"/><path d="M35.5 44.348c4.26 0 7.713-.702 7.713-1.568 0-.866-3.454-1.568-7.714-1.568s-7.713.702-7.713 1.568c0 .866 3.453 1.568 7.713 1.568Z" fill="#B26500"/><path d="M35.5 44.348c4.26 0 7.713-.702 7.713-1.568 0-.866-3.454-1.568-7.714-1.568s-7.713.702-7.713 1.568c0 .866 3.453 1.568 7.713 1.568Z" fill="#B26500"/><path d="M35.5 43.504c3.104 0 5.62-.324 5.62-.724 0-.4-2.516-.724-5.62-.724-3.105 0-5.622.324-5.622.724 0 .4 2.517.724 5.621.724Z" fill="#FFA000"/><path d="M31.738 32.459c-.218.548-.784 1.677-.488 2.183.685 1.178 2.32 1.6 2.32 2.683 0 1.652-1.203 7.006-1.203 7.006m6.659-12.069s.787 1.687.453 2.443c-.25.563-1.75 1.47-1.944 1.62-.896.704.296 8.01.296 8.01" stroke="#B26500" stroke-width=".703" stroke-miterlimit="10"/><path d="M31.738 32.459c1.21-2.391 1.832-7.847.295-7.57-2.59.468.602 9.433 2.173 8.403 1.572-1.03 3.52-8.385 1.129-8.413-2.391-.028.161 9.373 1.785 8.329 1.284-.827 4.416-8.318 1.843-8.318-2.19 0 .066 7.372.066 7.372" stroke="#fff" stroke-width=".703" stroke-miterlimit="10"/><path d="M43.196 43.107s-2.026.978-7.696.978-7.696-.978-7.696-.978-.126 1.807.292 2.627c.503.984.89 1.325.89 1.325l.21 1.002-.084.264c-.11.344-.032.724.21.994l.184.204.204.964-.07.193c-.134.37-.043.78.231 1.062l.134.137.165.787s.837 1.786 5.33 1.786 5.33-1.786 5.33-1.786l.014-.066.091-.092a.646.646 0 0 0 .155-.685l-.053-.138.218-1.04.383-.404c.19-.2.232-.496.11-.742l-.177-.348.222-1.044.14-.11c.208-.228.211-.572.12-.808a.5.5 0 0 1 .13-.534c.221-.211.506-.531.717-.928.433-.805.296-2.62.296-2.62Z" fill="#82AEC0"/><path d="m28.985 47.059.19 1.009c2.046-.01 4.778.091 10.02-.742.945-.215 2.081-.64.826-.464 0-.004-4.813.457-11.036.197Zm.703 3.435c2.264-.04 6.89-.264 11.862-1.343l.222-1.045c-5.2 1.182-10.09 1.393-12.288 1.42l.204.968Zm11.546.146c-4.602 1-8.909 1.256-11.24 1.312l.151.717s.074 2.226 5.33 2.226 5.33-2.226 5.33-2.226-2.243.64-5.003.327a.222.222 0 0 1-.004-.443 78.272 78.272 0 0 0 5.218-.872l.218-1.04Z" fill="#2F7889"/><path d="M27.83 43.107s2.27.978 7.65.978c5.378 0 7.691-.978 7.691-.978" stroke="#82AEC0" stroke-width="1.405" stroke-miterlimit="10" stroke-linecap="round"/><path d="M30.536 16.128c1.375-.338 2.813-.169 3.797 1.026.278.338.492.739.542 1.175.098.84-.422 1.634-1.041 2.218-1.765 1.666-4.272 2.475-5.41 4.774-.268.538-.479 1.118-.887 1.558-.407.44-1.086.706-1.617.425-.281-.148-.474-.425-.633-.703-.998-1.779-.924-4.047-.045-5.889.966-2.018 3.086-4.043 5.294-4.584Z" fill="#FFFF8D"/><path d="M29.33 44.82c-.31-.142-.186-.606.151-.581a73.59 73.59 0 0 0 5.608.197c2.686 0 5.048-.2 6.426-.348.341-.035.471.432.158.576-1.061.5-3.006 1.07-6.338 1.07-3.252 0-5.045-.483-6.005-.915Z" fill="#FFD600"/><path d="M31.26 48.37c-.236.084-.478.2-.598.418a.406.406 0 0 0-.049.264c.028.133.151.228.274.288.247.12.524.151.795.155.559.007 1.114-.099 1.666-.204.166-.032.334-.063.482-.144.148-.081.274-.218.299-.383.035-.222-.123-.436-.317-.542-.668-.369-1.877-.095-2.552.148Zm.524 2.317c-.236.084-.479.2-.598.418a.406.406 0 0 0-.05.264c.029.133.152.228.275.288.246.12.524.151.794.155.56.007 1.115-.099 1.667-.204.165-.032.334-.063.481-.144.148-.081.275-.218.3-.384.034-.221-.124-.435-.317-.541-.668-.366-1.881-.091-2.552.148Z" fill="#94D1E0"/><path d="M30.581 42.102c.32.031.658.003.928-.17.271-.171.443-.523.334-.825-.056-.158-.179-.285-.299-.405-.263-.26-.527-.52-.787-.78a13.78 13.78 0 0 0-.9-.844c-.489-.408-1.146-.79-1.79-.492-.548.253-.678.752-.436 1.276.517 1.1 1.72 2.113 2.95 2.24Z" fill="#FFFF8D"/></svg>