<svg width="71" height="70" viewBox="0 0 71 70" fill="none" xmlns="http://www.w3.org/2000/svg"><path d="m49.859 16.449.084.91c.436-.045 1.237.099 2.366 1.23 1.132 1.133 1.276 1.931 1.23 2.367l.911.084c1.076.099 2.05-.857 1.934-1.93-.11-1.009-.633-2.137-1.547-3.051-.914-.91-2.04-1.438-3.052-1.547-1.069-.113-2.025.861-1.926 1.937Z" fill="#9E740B"/><path d="m43.552 27.347-2.602-2.602 8.958-7.621s.998-.721 2.791 1.072c1.793 1.793 1.073 2.791 1.073 2.791l-7.619 8.958-2.601-2.598Z" fill="#693928"/><path d="M22.676 52.473c-3.217 3.108-8.469 4.022-8.469 4.022L42.501 28.2l3.01 3.01-22.835 21.262Z" fill="#82AEC0"/><path d="M18.229 48.026c-3.104 3.22-4.022 8.47-4.022 8.47l28.294-28.294-3.01-3.01L18.23 48.026Z" fill="#C9E3E6"/><path d="m33.708 20.252 5.19 6.346s.565.738.583 1.347c.028.956.077 1.596.9 2.415.822.822 1.874.868 2.436.847.563-.021 1.283.59 1.283.59l6.346 5.19a.768.768 0 0 0 1.122-.14c.218-.303.158-.725-.092-1.003-1.4-1.557-5.344-6.015-5.344-6.015s-.6-.756-.615-1.382c-.014-.629.046-1.455-.886-2.383-.931-.928-1.606-.848-2.447-.88-.71-.027-1.318-.622-1.318-.622s-4.458-3.948-6.019-5.343c-.278-.25-.7-.31-1.002-.092a.775.775 0 0 0-.137 1.125Z" fill="#9E740B"/><path d="m42.554 28.22-8.891-8.892a.766.766 0 0 0 .045.925l5.19 6.345s.566.739.583 1.347c.014.545.039.988.207 1.42.225.573.985.707 1.424.275a353.74 353.74 0 0 0 1.442-1.42Z" fill="#E2A610"/><path d="M42.5 29.604a1.403 1.403 0 1 0 0-2.805 1.403 1.403 0 0 0 0 2.805Z" fill="#1E4EA6"/><path d="M42.269 27.819c-.106.168-.162.327-.13.517.01.15.101.316-.004.457-.134.182-.425.14-.566-.025-.2-.243-.21-.541-.172-.788.067-.425.288-.745.671-.71.278.025.355.341.2.549Z" fill="#42A5F5"/><path d="M45.714 24.989a11.547 11.547 0 0 1 1.487 1.807.878.878 0 0 0 .183-.14c.587-.588.317-1.811-.605-2.732-.92-.921-2.144-1.192-2.731-.605a1.017 1.017 0 0 0-.14.183c.58.38 1.202.882 1.806 1.487Zm1.783-1.779a9.4 9.4 0 0 1 1.308 1.61c.06-.038.12-.08.168-.13.545-.545.327-1.652-.488-2.468-.816-.815-1.92-1.033-2.468-.489a.838.838 0 0 0-.13.17 9.52 9.52 0 0 1 1.61 1.307Zm1.779-1.783c.467.468.85.953 1.132 1.41a.745.745 0 0 0 .154-.123c.507-.506.338-1.49-.372-2.204-.71-.714-1.698-.88-2.205-.373a.877.877 0 0 0-.123.155c.46.284.946.668 1.414 1.135Zm1.778-1.779c.397.398.72.816.956 1.213a.857.857 0 0 0 .141-.112c.464-.464.348-1.333-.257-1.937-.604-.605-1.473-.721-1.937-.257a.862.862 0 0 0-.112.14 6.2 6.2 0 0 1 1.21.953Z" fill="#A65F3E"/><path d="M52.717 17.127a2.752 2.752 0 0 0-1.16-.597.7.7 0 0 1-.517-.549v-.003a.705.705 0 0 1 .858-.82 4.187 4.187 0 0 1 1.782.94c.327.295.278.822-.08 1.079a.705.705 0 0 1-.883-.05Z" fill="#E2A610"/><path opacity=".6" d="M20.996 37.74a2.913 2.913 0 0 0-1.013-.479 3.839 3.839 0 0 0-.446-.084 3.846 3.846 0 0 0-.088-.447c-.099-.334-.225-.675-.478-1.012a2.913 2.913 0 0 0-.478 1.012 3.893 3.893 0 0 0-.085.45 4 4 0 0 0-.446.088 2.834 2.834 0 0 0-1.013.475 2.84 2.84 0 0 0 1.013.474c.147.043.299.067.45.092.02.151.049.299.088.446.091.334.218.675.474 1.013a2.84 2.84 0 0 0 .475-1.013c.042-.147.067-.295.088-.443a4.06 4.06 0 0 0 .45-.088c.33-.105.671-.232 1.009-.485Zm9.889 10.789c.183-.025.366-.081.552-.211a1.173 1.173 0 0 0-.552-.211 1.211 1.211 0 0 0-.211-.552 1.159 1.159 0 0 0-.21.552c-.184.024-.366.08-.553.21.183.13.366.187.552.212.025.182.08.365.211.551.13-.182.186-.365.211-.551Z" fill="#fff"/><path d="M19.182 44.525c.183-.025.366-.081.552-.211a1.173 1.173 0 0 0-.552-.211 1.211 1.211 0 0 0-.211-.552 1.171 1.171 0 0 0-.211.552c-.183.024-.366.08-.552.21.186.13.37.187.552.212.025.182.08.365.21.552.131-.187.187-.37.212-.552Zm21.586 2.767a3.15 3.15 0 0 0-1.083-.51 4.592 4.592 0 0 0-.478-.095 3.83 3.83 0 0 0-.095-.478 3.147 3.147 0 0 0-.51-1.083c-.27.362-.408.72-.51 1.083a4.59 4.59 0 0 0-.094.478c-.159.021-.32.053-.479.095a3.15 3.15 0 0 0-1.082.51c.362.27.72.407 1.082.51.159.042.32.07.479.094.02.158.052.32.094.478.102.362.24.721.51 1.083.27-.362.408-.72.51-1.083.042-.158.07-.32.095-.478.158-.02.32-.052.478-.095.359-.098.72-.239 1.083-.51Z" fill="#fff"/><path opacity=".6" d="M44.445 39.56a2.824 2.824 0 0 0-.97-.456 3.691 3.691 0 0 0-.43-.085 3.696 3.696 0 0 0-.084-.429 2.824 2.824 0 0 0-.457-.97 2.824 2.824 0 0 0-.457.97 3.696 3.696 0 0 0-.084.43 3.691 3.691 0 0 0-.43.084 2.825 2.825 0 0 0-.97.457c.324.242.647.365.97.457.145.038.286.063.43.084.02.144.045.285.084.43.092.323.215.646.457.97.243-.324.366-.648.457-.97.039-.145.063-.286.084-.43a3.69 3.69 0 0 0 .43-.084c.323-.092.646-.215.97-.457Z" fill="#fff"/><path d="M27.412 34.332a2.008 2.008 0 0 0-.963-.372 2.89 2.89 0 0 0-.057-.296 1.883 1.883 0 0 0-.316-.664 2.006 2.006 0 0 0-.373.963 3.027 3.027 0 0 0-.291.056 1.922 1.922 0 0 0-.665.31c.225.169.443.25.665.31.098.024.196.045.291.059.014.099.032.197.057.295.063.225.144.443.309.665.169-.225.25-.443.31-.665.024-.098.045-.197.06-.291.098-.014.2-.032.298-.06a1.85 1.85 0 0 0 .675-.31Zm1.965 18.592a2.007 2.007 0 0 0-.963-.373 3.19 3.19 0 0 0-.056-.299 1.88 1.88 0 0 0-.317-.664 2.008 2.008 0 0 0-.372.967 2.76 2.76 0 0 0-.289.056 1.923 1.923 0 0 0-.664.31c.225.165.443.245.664.309.099.028.197.045.296.06.014.098.031.193.056.291.063.225.144.443.31.665.168-.225.249-.443.309-.665.024-.098.042-.193.056-.288.098-.014.2-.032.302-.06.225-.056.447-.14.668-.31Zm-5.425-13.152c.183-.025.366-.081.552-.211a1.174 1.174 0 0 0-.552-.211 1.211 1.211 0 0 0-.21-.552 1.173 1.173 0 0 0-.212.552 1.21 1.21 0 0 0-.552.21c.187.13.37.187.552.212.025.183.081.365.211.552a1.18 1.18 0 0 0 .211-.552Z" fill="#fff"/></svg>