<svg width="71" height="70" viewBox="0 0 71 70" fill="none" xmlns="http://www.w3.org/2000/svg"><g clip-path="url(#a)"><path d="M27.193 24.89s-1.357-1.214-2.306-2.142c-1.449-1.417-1.74-1.902-1.709-2.197.032-.295 2.728.418 2.728.418l5.8-2.967 8.108-.264 6.033 3.133 1.634-.327s-.25.689-1.17 1.677c-.865.924-2.57 2.932-2.57 2.932l-16.548-.264Zm8.149 3.536-7.049.123-6.275.756s-2.767-.496-2.767-.264c0 .232.33.657.89 1.287.558.625 3.592 3.558 3.592 3.558l.76 2.14 7.15 1.681 14.7-.956.33-2.767s2.01-1.976 2.668-2.538c.658-.563 1.761-1.547 1.958-1.846.197-.295.134-.63.134-.63l-3.97.496-11.397-.942-.724-.098ZM22.908 37.71l-6.293 1.65-2.669-.166s-.007.5.644 1.143c.956.946 3.114 2.911 3.445 3.175.33.263.496.394.858.394s32.586.776 32.783.71c.197-.067 1.8-1.537 2.791-2.412.549-.485 2.215-1.776 2.268-2.285.042-.404-.077-.5-.077-.5l-4.05.204-11.732-1.55-17.968-.362Z" fill="#546F7A"/><path d="m18.668 41.065.021 5.575 17.139.134 15.95-.165v-5.306l-33.11-.238Zm4.9-5.035.032-4.91 23.168-.036.067 4.947-12.952 1.251-10.315-1.251Zm3.404-13.419L27 27.094l8.3.611 8.47-.608v-4.45l-16.798-.036Z" fill="#73A0A2"/><path d="m29.418 23.152.633-.53s.47.02.675-.11c.204-.126 1.828-2.088 2.211-2.243.313-.126 4.813-.07 5.07.032.256.102 1.92 1.965 2.32 2.229.239.158.678.14.678.14l.788.637-12.375-.155Zm-4.422 8.722 10.61 1.02 9.921-1.125.01-.682L25 31.11l-.004.763Z" fill="#B9CED3"/><path d="M20.11 41.071v5.523l30.272.225-.038-5.523-30.235-.225Z" fill="#fff"/><path d="M18.344 46.932s-.074-.415.299-.527c.372-.113 32.614.13 32.881.144.64.038.507.57.507.57l-17.579.453-16.108-.64Z" fill="#BCCED2"/><path d="m24.992 36.115.004-4.24 20.531-.105-.067 5.284-20.468-.94Zm3.382-9.089-.035-4.412 14.01.035-.004 4.416-13.971-.039Z" fill="#fff"/><path d="M23.302 20.794s1.652.9 2.552.977c.9.074 3.68.151 4.13-.074.45-.225 1.955-2.215 2.48-2.478.527-.264 5.371-.222 5.958-.004.478.176 2.155 2.296 2.567 2.447.415.151 4.545.077 5.07-.074.723-.21 1.142-.541 1.367-.942.186-.338-.092-.598-.43-.56-.337.04-1.652.338-2.815-.751-1.164-1.09-2.18-3.379-2.18-3.379H28.487s-.601 2.44-1.276 3.154c-.675.713-1.241 1.163-1.955 1.125-.64-.036-.91-.173-1.24-.264-.676-.194-1.038.573-.714.823Zm1.992 5.856c-.169.14-1.142 1.586-2.855 1.92-1.54.298-2.292-.457-2.967-.155-.344.151-.221.626-.221.626s.917.931 2.858 1.072c.573.042 11.37.257 13.286.183 1.916-.074 14.023-.043 14.512-.11.696-.094 1.375-.906 1.487-1.019.113-.112.067-.52-.495-.668-.563-.15-.967.292-2.36.144-1.694-.182-2.404-1.954-2.59-1.954-.187 0-20.43-.225-20.655-.039Z" fill="#385661"/><path d="M35.35 26.78c-.729-.038-3.284 3.713-5.51 5.58-2.556 2.14-4.848 3.755-4.848 3.755l11.043 1.466 10.29-1.354s-3.832-2.405-5.783-4.17c-1.951-1.764-4.258-5.224-5.193-5.276Z" fill="#546F7A"/><path d="M27.432 36.04s2.478-1.69 4.282-3.304c1.803-1.614 3.304-3.681 3.642-3.72.337-.039 2.19 2.472 3.944 3.98 1.878 1.617 4.922 3.684 4.922 3.684l-9.088.752-7.702-1.392Z" fill="#fff"/><path d="M29.38 36.181s1.185-.654 2.753-2.137a81.351 81.351 0 0 1 2.105-1.91s.475.595 1.08.595c.605 0 1.121-.577 1.121-.577s1.702 1.561 2.605 2.303c1.03.847 2.88 2.06 2.88 2.06s-6.212.88-6.212.788c0-.092-6.332-1.122-6.332-1.122Z" fill="#B9CED3"/><path d="M19.402 35.724c-.158.253-1.571 2.264-2.658 2.714-1.086.45-2.01.092-2.39.197-.383.106-.412.556-.412.556s.377.414 2.29.485c1.912.07 14.824.151 18.86.19 4.036.038 18.264.365 19.586.256 1.322-.109 2.043-.548 2.043-.548s-.081-.556-.668-.556c-.588 0-1.435.04-2.5-.513-1.065-.548-2.36-2.384-2.911-2.566-.27-.092-7.78.014-15.328-.035-7.812-.05-15.828-.317-15.912-.18Z" fill="#385661"/><path d="M18.344 46.932s-1.115 3.224-1.628 4.49c-.622 1.539-1.906 4.18-1.906 4.18l1.393.477 36.418.292 3.593-1.065s-1.649-2.349-2.823-4.767c-1.023-2.11-1.36-3.421-1.36-3.421l-33.687-.186Z" fill="#89837C"/><path d="M24.802 42.741h1.796v2.739h-1.82l.024-2.739Zm2.968 0v2.764h1.634V42.74s-1.655.021-1.634 0Zm5.224 0v2.785h1.776v-2.764l-1.776-.02Zm4.511 0h-1.656v2.785h1.656V42.74Zm5.477.022H41.28V45.5h1.702v-2.738Zm1.107 0v2.717h1.656v-2.693l-1.656-.024ZM33.25 33.717h.929l-.014 2.183-.935-.01s.038-2.194.02-2.173Zm1.61 0 .004 2.194h.967l-.004-2.177-.967-.017Zm1.642.017h.967l.007 2.18h-.967s.032-2.141-.007-2.18Zm-3.329-10.05h-1.649V25.6h1.65v-1.916Zm1.649.02h1.497v1.916h-1.518c.003-.003.06-1.916.02-1.916Zm3.094 0h1.476V25.6h-1.515l.039-1.895Z" fill="#2F2F2F"/><path d="M40.861 15.95h.612s-.084.386-.176.607c-.144.348-.21.626-.031.88.179.252 1.04.534 1.831-.208.788-.745.24-2.591.387-2.89.148-.299.506-.387.612-.552.105-.165-.148-.907-.907-.925-.566-.01-.88.479-.88.479s-.421-.56-.864-.493c-.594.088-.967.746-.939.907.029.162.82.194.732.967-.078.644-.377 1.227-.377 1.227Zm-11.207-.001h-.64s.014.865 0 1.205c-.014.341-.373.728-.998.64-.76-.105-1.027-.805-.985-1.8.043-.995.422-1.314.253-1.712-.165-.386-.611-.12-.745-.207-.2-.134.074-1.083.925-1.143.735-.053.952.503.952.503s.373-.559 1.045-.436c.787.148.938.984.819 1.1-.12.12-.492-.105-.714.3-.418.762.088 1.55.088 1.55Z" fill="#FCC01E"/><path d="M16.224 52.567s.457.507.499 1.79c.042 1.283-.323 1.723-.323 1.723s-1.34.028-1.66 0c-.32-.029-.541-.468-.18-.985.363-.517 1.664-2.528 1.664-2.528Zm1.224-2.309c-.116.27-.07.78-.029 1.142.043.363.029.767.363 1.03.334.264.808.306 1.701.278.893-.028 1.1-.07 1.27-.362.168-.292.126-1.603.154-1.853.028-.25-.984-1.016-1.157-1.072-.21-.07-2.067.278-2.302.837Zm.032-.879s2.017-.39 2.046-.738c.035-.419-.49-.654-.71-.865-.222-.208-.556-.594-.556-.594l-.78 2.197Zm3.075-1.715c-.197.182-.334.85-.014 1.406.317.552.682.85 1.227.865.545.014.668-1.059.767-1.407.098-.348.179-.618-.419-.794-.752-.221-1.41-.208-1.56-.07Zm-1.725-.735s.305.502.808.517c.502.014.864-.503.864-.503l-1.673-.014Zm4.323.028s-.06.429.137.724c.197.292.127.696.767.753.64.056 2.091.126 2.397-.043.197-.109.19-1.413.19-1.413l-3.49-.021Zm1.863 1.824c-.878.028-1.63.197-1.965.587-.334.39-.517.851-.865 1.368-.348.517-.724 1.353-.668 1.853.057.502.932 1.381 1.396 1.395.475.014.935-.499 1.17-.517.222-.014.7.338 1.045.278.503-.084 1.03-.738 1.297-2.021.295-1.435.085-2.05.056-2.162-.031-.113-.225-.823-1.466-.78Zm-7.625 5.366c.046.544.71 1.659 1.213 1.715.647.07 1.301-.573 1.354-.921.07-.475-.545-1.716-1.34-1.631-.464.049-1.283.154-1.227.837Zm3.399 1.409c.13.187 1.059-.028 1.242-.098.183-.07.696-.405.654-.612-.043-.207-.78-.823-1.185-.78-.4.038-.904 1.209-.71 1.49Zm2.297.576 3.27.029s.446-.162.499-.538c.052-.377-1.91-1.382-2.482-1.298-.573.085-.935.433-1.087.865-.15.436-.2.942-.2.942Zm3.242-2.137c-.025.349.963 1.03 1.184 1.03.222 0 1.087-1.128 1.185-1.715.12-.724-.946-1.304-1.24-1.199-.391.14-1.101 1.508-1.13 1.884Zm3.413-6.578c0 .176-.348.72-.4.89-.057.168.207 1.395-.127 1.56-.334.17-.95-.361-1.255-.667-.306-.306-.795-.795-.823-.978-.028-.183.348-.626.724-.85.377-.222.876-.384.876-.384l.756.004s.25.077.25.425ZM27.4 50.036c-.172.12-.235.893-.126 1.171.112.278.625.64.864.612.24-.028.725-.612.71-1.044-.013-.433-1.184-.921-1.448-.739Zm1.379 1.895c.014.264.53.992.696 1.03.165.039.752-.32.92-.39.17-.07.95.056 1.157-.207.208-.264-.25-1.143-.39-1.382-.14-.236-.545-.654-.682-.64-.137.014-.78.264-1.03.489-.253.221-.682.847-.671 1.1Zm2.706-4.894c-.172-.038-.738.447-.977.837-.239.39-.545.767-.46 1.058.084.292 1.596 1.122 2.2.348.978-1.237-.583-2.2-.763-2.243Zm1.498-.02s-.105.147.106.41c.207.265.598 1.214 1.17 1.186.574-.028 1.087-.587 1.34-.893.25-.306.278-.693.278-.693l-2.894-.01Zm-1.107 3.575c-.06.144.084.559.334.517.25-.042.39-.183.865-.183.474 0 .696.53 1.1.489.404-.043.823-.348.963-.64.14-.292.155-.696.113-.809-.042-.112-.738-.573-1.477-.53-.742.041-1.705.695-1.898 1.156Zm.836 1.325c-.33.2-.432.545-.39.739.042.197-.474.654-.263 1.142.207.489.991 1.435 1.198 1.66.208.221 1.03.235 1.185.154.155-.084 1.087-.949 1.185-1.269.098-.32-.432-1.406-.724-1.772-.296-.362-1.523-1.058-2.19-.654Zm3.485-1.424c-.33.166-.851.978-.893 1.256-.042.277.183.963.64.794.46-.169.907-.823 1.044-.95.14-.126.879-.621.879-.92.003-.387-1.501-.26-1.67-.18Zm.71-3.121c-.218.158-1.52 1.434-1.463 1.617.056.183.64.696.907.837.264.14.78.028 1.297.07.517.042 1.03.236 1.27.183.235-.056 1.17-.46 1.086-1.129-.084-.668-1.382-1.339-2.008-1.49-.629-.158-.935-.2-1.09-.088Zm1.961-.327s.355.478.925.868c.57.39 1.1.489 1.462.25.362-.236.893-1.1.893-1.1l-3.28-.018Zm2.682 1.483c-.263 0-.723.447-.864.573-.14.127-.278.32-.183.475.095.155.921.221 1.1.042.183-.183.225-1.09-.052-1.09Zm.683.46c.091.401 1.367 1.1 1.786.992.418-.113 1.114-.992 1.128-1.241.014-.25-1.03-1.199-1.17-1.311-.141-.113-1.143-.141-1.227-.015-.085.127-.616 1.157-.517 1.575Zm-2.665 1.966c-.046.274.587 1.002.879 1.368.291.365.334.808.64.879.305.07.977-.278 1.297-1.016.32-.739.489-1.1.084-1.66-.404-.559-1.255-.418-1.575-.348-.32.067-1.255.373-1.325.777Zm5.942-3.357c-.183.112-.085 1.072.182 1.199.264.126.545.014.795-.155s.587-.545.502-.71c-.087-.169-1.286-.454-1.48-.334ZM27.903 56.17s.014-.273.538-.962c.524-.69 1.076-1.625 1.874-1.561.798.063 1.111.513 1.6 1.174a95.18 95.18 0 0 0 1.05 1.389l-5.062-.04Zm7.474.064s.752-.784 1.037-.748c.288.038.176.186.4.351.226.162.55.411.55.411l-1.987-.014Zm.939-3.248c-.27.242-.285 1.072.074 1.575.464.65 1.364 1.31 1.786 1.5.425.187.875-.474.85-.85-.024-.376-.724-1.287-1.139-1.663-.415-.376-1.234-.861-1.571-.563Zm.872-.576c-.004.154 1.065 1.044 1.343 1.342.28.3 1.044.942 1.494.88.446-.068.654-.503.559-.925-.095-.422-.774-1.326-1.122-1.663-.344-.338-.823-.57-1.072-.56-.25.011-1.192.57-1.203.925Zm4.882 1.166c-.07.078-1.233 1.29-1.335 1.55-.102.26.01.943.056 1.038.046.095.099.116.099.116l.495.003s.556-.742.855-1.114c.298-.373.467-.795.439-.914-.028-.127-.524-.77-.608-.679Zm1.02 1.562c-.182-.007-.607.485-.699.597-.095.113-.372.552-.372.552l1.901.014c-.003 0-.53-1.156-.83-1.163Zm-.213-2.43c-.088.538.168 1.227.587 1.85.513.766 1.494 1.493 2.102 1.427.608-.067 1.343-.869 1.561-1.382.214-.513.27-1.318-.197-1.663-.468-.344-.879-.214-1.139-.372-.26-.159-1.329-1.118-1.708-1.094-.405.028-1.094.552-1.206 1.234Zm2.183-1.941c.041.39.196.942.998 1.262.801.317 1.24.289 1.427.253.186-.038 1.42-.942 1.28-1.42-.14-.474-.289-.664-1.02-.693-.728-.028-1.29-.653-1.747-.523-.45.13-.991.615-.939 1.121Zm1.775-1.747c-.031.44.552.433.97.43.398-.004 1.15-.697 1.224-1.298.028-.214-.506-.453-.795-.495-.316-.046-1.381 1.104-1.399 1.364Zm2.257-1.92s.267.405.815.658c.552.253.83.503 1.185.344.355-.158.654-.99.654-.99l-2.654-.011Zm.021 2.285c.038.486.393 1.111.523 1.206.13.095 1.111.13 1.29.074.176-.056.609-.953.672-1.072.067-.123-.074-.665-.204-.728-.13-.067-.766-.232-.83-.31-.066-.073-.558-.224-.681-.157-.123.063-.806.537-.77.987Zm3.632-.28s-.411.755-.795 1.202c-.383.446-.654.446-.727 1.054-.074.609.393 1.495.822 1.477.43-.017.886-.608 1.083-.886.197-.281.489-.97.489-.97s-.359-.72-.46-.946c-.103-.225-.412-.931-.412-.931Zm-4.248 3.08c-.147.154-.608 1.427-.559 1.642.046.214.693.664.886.664.194 0 1.069-.57 1.29-.728.232-.169.739-.671.728-.868-.01-.197-.422-1.568-.84-1.624-.422-.057-1.28.682-1.505.914Zm.145 4.155s-.44-.97-1.02-.999c-.393-.017-1.04.977-1.04.977l2.06.022Zm.89.007s-.503-.527-.464-.893c.066-.608 1.318-1.325 1.504-1.354.187-.028.869.682.97.992.102.31.124.72-.073.896a6.511 6.511 0 0 1-.475.373l-1.462-.014Zm2.178-2.482c.047.267.317.84.823.935.503.095 1.343-.13 1.84-.27.495-.141.966-.549.966-.549l-.285-.457s-1.11-.72-1.972-.5c-.858.226-1.427.507-1.371.84Zm2.328-2.078s-.534.362-.422.605c.113.242.717.446.802.485.084.039.302.095.302.095l-.682-1.185Zm2.162 3.495s-.65-.39-1.072-.306c-.422.084-1.698.495-2.025.682-.327.186-.587.713-.587.713s3.649.24 3.965-.02c.317-.26-.281-1.07-.281-1.07Z" fill="#AFA59E"/><path d="M17.76 50.733c.053.284.485.337.946.597.46.26.66.535 1.146.485.485-.049.5-.671.475-.994-.025-.324-.162-.872-.661-.985-.496-.112-1.99.436-1.906.897Zm4.697.274c-.098.323.074.822.412.773.337-.05 1.395-1.083 1.768-1.283.372-.2 1.508-.46 1.47-.897-.04-.436-1.301-.608-1.706-.46-.415.147-1.754 1.244-1.944 1.867Zm4.929-2.876c.014.274.285.696.686.524.4-.172.313-.285.499-.373.186-.088.71-.21.598-.573-.113-.362-.75-.362-1.133-.2-.39.162-.66.373-.65.622Zm3.027-.015c-.098.401.5.45.798.412.299-.039.91.063.858-.373-.05-.436-.436-.622-.809-.612-.351.014-.734.113-.847.573Zm-1.195 3.787c.13.204.46.211 1.083-.235.623-.45.883-.56.637-.883-.25-.323-.75-.15-1.147.152-.4.295-.822.58-.573.966Zm3.86-1.817c-.007.243.211.534.858.584.647.049.946-.113.984-.422.04-.31-.312-.5-.808-.573-.496-.074-1.023.038-1.034.411Zm4.62-2.406c-.236-.01-1.121.637-1.318.873-.2.235-.137.647.25.671.386.025.896.014 1.346.039.45.024.896.063 1.097.014.2-.05.436-.45.186-.76-.253-.312-1.237-.822-1.56-.836Zm-4.747 4.473c-.415.344-.172.96.187 1.318.436.436 1.293.66 1.582.299.284-.362.063-1.059-.51-1.495-.51-.386-.96-.372-1.259-.122Zm4.645.113c.035.26.176.485.773.46.598-.024.75-.387.686-.647-.063-.26-.478-.369-.735-.362-.373.014-.773.176-.724.549Zm2.542-1.059c.27.271.636.26.847.387.211.123.151.5.647.373.5-.123.847-.398.76-.823-.089-.422-.349-.872-.81-.92-.46-.05-1.244.16-1.395.361-.148.197-.176.496-.05.622Zm3.1 1.607c.113.32 1.048.921 1.607 1.058.56.137 1.294.25 1.705.025.412-.225.436-.76.039-.872-.397-.112-.946-.039-1.122-.162-.175-.123-.784-1.097-1.195-1.083-.411.011-1.195.573-1.034 1.034Zm2.479-2.366c-.017.253.5.984 1.308 1.048.809.063 1.42-.549 1.308-.872-.113-.324-.809-.324-1.181-.387-.373-.063-.686-.397-.897-.337-.21.06-.513.186-.538.548Zm-2.879-2.641c-.11.274-.313.686.46.858.774.176.995.014 1.122-.26.126-.275-.25-.51-.697-.71-.45-.2-.808-.074-.885.112Zm6.739 1.357c-.032.384.373.612.809.612.435 0 .66-.235.685-.524.025-.284-.313-.548-.71-.559-.4-.014-.749.036-.784.471Z" fill="#DCD2C7"/></g><defs><clipPath id="a"><path fill="#fff" transform="translate(12.969 12.5)" d="M0 0h45v45H0z"/></clipPath></defs></svg>