<svg width="71" height="70" viewBox="0 0 71 70" fill="none" xmlns="http://www.w3.org/2000/svg"><path d="M56.123 56.094H14.877a.471.471 0 0 1-.47-.471V14.377c0-.26.21-.47.47-.47h41.246c.26 0 .47.21.47.47v41.246c0 .26-.21.47-.47.47Z" fill="#F2A600"/><path d="M50.523 19.975H20.475v30.048h30.048V19.975Z" fill="#fff"/><path opacity=".5" d="M56.122 13.906H14.877a.48.48 0 0 0-.334.137l5.93 5.931h30.049l5.93-5.93a.465.465 0 0 0-.33-.138Z" fill="#D1762C"/><path d="m20.474 19.974-5.93-5.931a.48.48 0 0 0-.138.334v41.245c0 .13.053.25.137.334l5.931-5.93V19.973Z" fill="#DE7340"/><path d="M53.254 17.246v35.508H17.746V17.246h35.508Zm2.11-2.11H15.636v39.727h39.726V15.137Z" fill="#FFCD40"/><path d="M17.746 52.754V17.246l-2.11-2.11v39.727l2.11-2.11Z" fill="#A65F3E"/><path d="m53.23 17.246 2.109-2.11H15.637l2.11 2.11h35.482Z" fill="#D1762C"/><path d="M53.957 53.457H17.043V16.543h36.914v36.914Zm-36.21-.703h35.507V17.246H17.746v35.508Z" fill="#D1762C"/><path d="M17.746 52.754V17.246l-.703-.703v36.914l.703-.703Z" fill="#824A34"/><path d="m53.254 17.246.703-.703H17.043l.703.703h35.508Z" fill="#A65F3E"/><path d="M48.332 22.168H22.668v25.664h25.664V22.168Z" fill="url(#a)"/><path d="M48.332 34.515a3.225 3.225 0 0 0-1.864 1.441c-.063.109-.12.232-.232.299-.362.133-.777.162-1.058.478-.12-.745-1.023-1.16-1.715-.928-.588.148-.88.766-.932 1.329-.619-.183-1.3.292-1.343.935-.007.06-.007.127-.039.176-.154.158-.467.14-.657.33-.376.295-.552.805-.953 1.065 2.264-1.276 5.003-1.096 7.47-1.715.49-.12 1.034-.27 1.323-.7v-2.71Z" fill="#1B5E20"/><path d="M48.332 45.755s-5.832.302-12.199-1.66c-6.367-1.958-9.288-3.962-9.288-3.962s4.257.826 9.942-.102c3.723-.608 6.483-2.714 11.538-2.812l.007 8.536Z" fill="#689F38"/><path d="M33.215 40.52c.049-.067.109-.13.13-.211.025-.098-.014-.2-.042-.295a1.29 1.29 0 0 1 .063-.851c.06-.14.148-.267.19-.415.074-.253.003-.524-.01-.787a1.96 1.96 0 0 1 .228-1.038.255.255 0 0 1 .102-.116c.133-.06.246.127.26.271.042.366-.035.742.042 1.104.109.506.517.946.489 1.466-.01.186-.078.373-.043.552.029.137.117.257.19.376.19.31.306.657.341 1.02.043.432-.087.949-.492 1.1-.44.169-.89-.19-1.234-.425-.316-.218-.467-.668-.457-1.038a1.24 1.24 0 0 1 .243-.713Z" fill="#2E7D32"/><path d="m43.523 32.51-4.191.307c-.693.049-1.396.102-2.078-.032-.323-.063-.64-.169-.97-.186-.601-.032-1.174.225-1.758.372a4.919 4.919 0 0 1-1.962.092c-.453-.07-.917-.218-1.248-.538-.165-.158-.292-.359-.467-.51-.215-.19-.492-.295-.732-.45-1.012-.647-1.251-2.232-.474-3.15.126-.148.274-.281.386-.443.218-.31.289-.696.419-1.051.411-1.142 1.483-2.01 2.682-2.208 1.2-.197 2.479.274 3.287 1.181.264.296.5.644.865.792.215.084.454.09.682.119 1.305.165 2.398 1.167 2.953 2.359.246.53.419 1.118.83 1.53.169.168.373.302.577.428a21.43 21.43 0 0 0 2.858 1.494c-.253-.017-.503-.031-.756-.049" fill="#fff"/><path d="M39.332 32.817c-.693.049-1.396.102-2.078-.032-.323-.063-.64-.169-.97-.186-.601-.032-1.174.225-1.758.372a4.923 4.923 0 0 1-1.962.092c-.453-.07-.917-.218-1.248-.538-.165-.158-.292-.359-.467-.51-.215-.19-.493-.295-.732-.45-.365-.236-.573-.563-.762-.942-.046-.088-.046-.169-.053-.267.306.47 1.132.977 1.462.608.11-.324-.277-.886-.408-1.333-.246-.843-.27-1.719.032-2.545.035-.098.123-.418.243-.587.091.686.33 1.726.819 2.215.489.489 1.304.696 1.891.33.37-.232.587-.636.855-.98.787-1.01 2.162-1.526 3.42-1.284-.65.38-1.283.84-1.666 1.487-.383.647-.475 1.516-.046 2.138.345.5.97.756 1.575.745.334-.007.71-.123.847-.429.078-.175.06-.386.148-.559.165-.33.65-.372.977-.204.33.173.556.486.809.753.95.998 2.352 1.399 3.68 1.758-.038-.011-.119.02-.16.028l-.19.031c-.1.018-.198.043-.3.028-.21-.031-.425.004-.636.018-.496.035-.995.074-1.49.109-.609.042-1.22.088-1.832.134Z" fill="#C9E3E6"/><path d="M48.332 42.745c-12.33 2.872-18.19-4.184-25.664-4.978v10.065h25.664v-5.087Z" fill="#8BC34A"/><path d="M48.332 42.745c-12.33 2.872-18.19-4.184-25.664-4.978v10.065h25.664v-5.087Z" fill="url(#b)"/><path d="M25.769 39.623c-.366.109-.668-.172-.974-.32-.812-.601-.812-1.698-.749-2.616-.017-.218.137-.576.394-.422a4.722 4.722 0 0 1-.039-1.603c.053-.411.197-.696.531-.907.021-.042.007-.091-.003-.137-.155-.605.126-1.23.154-1.856.025-.489-.105-.995.064-1.452.07-.204.326-.316.372-.06.246.963.672 1.923.59 2.936a.31.31 0 0 0 .138.33c.717.64.397 1.755.513 2.623.338.798.33 1.69-.07 2.468-.183.429-.478.826-.921 1.016Z" fill="#2E7D32"/><path d="M30.63 40.157c-1.553-.373-1.616.039-2.13-.08-1.764-.532-.678-2.25-.168-2.67-.215-.818.344-1.152 1.005-1.961.106-1.656 1.695-1.174 1.49.278.423.548.577 1.15.44 1.835.042.408.44.675.626 1.04.362.714-.246 1.8-1.262 1.558Z" fill="#689F38"/><path d="M30.04 37.465c-.186.387-.72.467-1.139.362-.193-.05-.397-.155-.584-.084-.435.161-.573.513-.587.864 0 .471.471.84.943.862.47.02.914-.225 1.269-.528.105.633 1.086.616 1.515.253.408-.344.232-.896.232-.896.489.545.464.974.408 1.427-.053.436-.43.922-.204 1.259-.78.2-1.167-.471-1.79-.749-.228-.063-.467.004-.7.05-.955.249-2.028-.313-2.035-1.372a1.55 1.55 0 0 1 .703-1.29c.05-.032.102-.063.123-.12.022-.06 0-.123-.02-.182-.437-1.167.703-1.157 1.195-1.913.197.218.52.31.801.229-.221.513-.844.267-1.237.474-.732.602.47 1.445 1.107 1.354Z" fill="#2E7D32"/><path d="M24.777 35.106c.253.46.921.833.77 1.434-.228-.151-.506-.344-.784-.334-.232.31-.14.85.042 1.17.851 1.14 1.769-.58 1.84-1.384 1.033 1.209.087 4.563-1.783 3.396-.25-.2-.978-1.006-.935-2.349.024-.815.351-.868.541-.843-.278-.43-.33-1.038-.221-1.477.094-.376.26-.679.513-.925.256-.253.07-.478.077-.864.007-.563.155-.886.27-1.206.043.597.265 1.213.17 1.807-.057.253-.338.25-.465.432a1.17 1.17 0 0 0-.035 1.143Z" fill="#1B5E20"/><path d="M26.029 41.391c.133.433-1.449.116-1.227-.44.154-.386.225-.79.302-1.188.077-.629-.11-1.191-.4-1.73a.972.972 0 0 1 .224-.15c.633 1.174.654.76 1.174-.159a.813.813 0 0 1 .292.022c-.63.998-.78 2.492-.365 3.645Z" fill="url(#c)"/><defs><radialGradient id="b" cx="0" cy="0" r="1" gradientUnits="userSpaceOnUse" gradientTransform="matrix(12.49387 1.89393 -.96307 6.35319 40.909 43.014)"><stop stop-color="#D4E157"/><stop offset="1" stop-color="#D4E157" stop-opacity="0"/></radialGradient><radialGradient id="c" cx="0" cy="0" r="1" gradientUnits="userSpaceOnUse" gradientTransform="matrix(1.60853 .45877 -.57164 2.00429 26.224 39.517)"><stop offset=".441" stop-color="#A06841"/><stop offset=".923" stop-color="#A06841" stop-opacity=".138"/><stop offset="1" stop-color="#A06841" stop-opacity="0"/></radialGradient><linearGradient id="a" x1="33.473" y1="42.228" x2="36.413" y2="31.744" gradientUnits="userSpaceOnUse"><stop offset=".117" stop-color="#AFE4FE"/><stop offset=".608" stop-color="#84C9ED"/><stop offset="1" stop-color="#5FB2DE"/></linearGradient></defs></svg>