<svg width="71" height="70" viewBox="0 0 71 70" fill="none" xmlns="http://www.w3.org/2000/svg"><path d="m54.495 48.472-16.08 7.27c-.992.468-2.025.422-2.974-.126l-20.3-10.308c-.58-.373-.752-.917-.717-1.297.035-.38.123-.791 1.143-1.086l1.505-.556 20.362 11.099 14.47-5.913 2.591.917Z" fill="#01579B"/><path d="M38.22 54.578a2.795 2.795 0 0 1-2.552-.091l-19.817-9.985a.555.555 0 0 1-.197-.784c.436-.72 1.238-2.999-.084-4.89l22.38 10.775.27 4.975Z" fill="#F5F5F5"/><path d="M53.637 47.649s-15.41 6.926-15.416 6.93c-.51.22-1.526.614-2.697-.173.925.067 1.575-.316 1.91-.939.326-.604.228-1.596-.17-2.155-.242-.337-.892-.875-1.177-1.178l16.674-6.521c1.477-.608 2.862.302 3.084 1.41.246 1.251-1.35 2.274-2.208 2.626Z" fill="#94C6D6"/><path d="m54.407 43.072-15.915 7.102a3.76 3.76 0 0 1-3.083-.141L15.074 39.704a1.322 1.322 0 0 1-.604-.738c-.19-.615.049-1.389.77-1.635l22.035 11.232 15.09-6.458 2.042.967Z" fill="#01579B"/><path d="m55.605 44.102-1.733-.63-3.572.208-11.805 5.27a3.76 3.76 0 0 1-3.083-.141L15.074 38.484c-.524-.267-.412-1.044.165-1.154l14.657-6.556a2.16 2.16 0 0 1 1.237.133l20.915 9.97s3.322 2.275 3.557 3.225Z" fill="#0091EA"/><path d="M50.101 43.782s2.2-.861 3.93-.784c1.73.077 2.331 1.29 2.331 1.29-.327-1.487-1.863-2.246-1.863-2.246L31.647 30.535c-.158-.067-.741-.204-1.638.165-.724.3-3.09 1.407-3.09 1.407L50.1 43.782Z" fill="#616161"/><path d="M56.46 44.57c-.165-.657-.573-1.36-1.325-1.702-.991-.446-2.405-.33-3.308.141l-1.726.766v1.217l2.183-.97c2.123-.946 3.065.47 3.146.805.338 1.36-.316 2.148-2.246 3.034l-3.136 1.413v1.223l3.607-1.606c1.596-.64 3.417-1.843 2.805-4.321Z" fill="#424242"/><path d="m24.606 44.25-6.072-8.392.953-.425 6.83 9.386-1.711-.57Zm7.786 3.866-1.082-.858 18.79-3.835v.615l-2.633.998-15.075 3.08Z" fill="#01579B"/><path d="m18.203 28.735 23.734-3.965 10.368 11.415a.969.969 0 0 1-.507 1.617l-24.504 5.027-9.09-14.094Z" fill="#9CCC65"/><path d="m51.798 36.817-24.335 4.93-.077 1.16L51.798 37.9a.965.965 0 0 0 .601-1.487.946.946 0 0 1-.6.404Zm1.312 5.32a.688.688 0 0 1-.447 1.04L30.262 47.72c-1.347.278-2.669-.605-2.788-1.976a2.3 2.3 0 0 1 1.824-2.45l21.544-4.838 2.268 3.68Z" fill="#689F38"/><path d="M32.543 40.66 23.62 27.892l-5.09 1.346c-1.178 1.17-.739 3.094-.739 3.094s7.794 12.508 9.025 14.108c1.23 1.6 3.027 1.35 3.027 1.35l3.034-.612-.317-5.66-.017-.858Z" fill="#616161"/><path d="m32.544 40.744-4.286.886c-1.17.264-1.382 1.364-1.382 1.364L16.53 28.17s-1.473 1.782-.496 3.298L26.817 46.44c1.177 1.677 3.026 1.364 3.026 1.364l3.034-.612-.312-5.548-.021-.9Z" fill="#424242"/><path d="M51.76 41.68a.408.408 0 0 1-.289.57l-21.42 4.394c-1.347.278-2.3-.615-2.25-1.831.063-1.537.924-2.187 2.063-2.423l21.527-4.398s-.732.823-.173 2.363c.19.53.394 1.002.542 1.325Z" fill="#B9E4EA"/><path d="m28.894 41.926-9.18-12.987" stroke="#424242" stroke-width=".728" stroke-miterlimit="10"/><path d="M29.616 36.389 17.81 30.44l-.478.943 13.64 6.95-1.356-1.944Z" fill="#424242"/><path d="m51.247 35.01-.865-.948-13.3 6.103-7.467-3.695 1.273 1.82 4.946 2.529 3.685-.567 11.728-5.241Z" fill="#689F38"/><path d="m54.492 32.662-16.077 7.27c-.992.468-2.025.422-2.974-.126l-20.3-10.308c-.58-.373-.752-.918-.717-1.297.035-.38.123-.791 1.143-1.087l.953-.351 20.854 10.234L54.31 29.99l.183 2.672Z" fill="#C62828"/><path d="M38.218 38.769a2.795 2.795 0 0 1-2.553-.092l-19.817-9.984a.555.555 0 0 1-.197-.784c.436-.72 1.238-2.999-.084-4.89l21.88 11.13.77 4.62Z" fill="#F5F5F5"/><path d="m53.634 31.84-15.416 6.929c-.51.221-1.526.615-2.697-.173.925.067 1.575-.316 1.91-.938.326-.605.228-1.596-.17-2.155-.242-.338-.892-.876-1.177-1.178l16.675-6.522c1.476-.608 2.861.303 3.083 1.41.246 1.252-1.35 2.275-2.208 2.626Z" fill="#94C6D6"/><path d="m54.407 27.262-15.915 7.102a3.76 3.76 0 0 1-3.083-.14l-20.338-10.33c-.21-.105-.527-.376-.63-.759-.15-.57.047-1.318.795-1.614l18.637-3.948 20.535 9.69Z" fill="#C62828"/><path d="m55.603 28.292-1.733-.63-3.572.208-11.806 5.27A3.76 3.76 0 0 1 35.41 33L15.071 22.67c-.524-.267-.337-.973.165-1.153l14.66-6.553a2.161 2.161 0 0 1 1.238.134l20.915 9.97s3.318 2.271 3.554 3.224Z" fill="#F44336"/><path d="M50.101 27.968s1.832-.643 3.562-.566c1.73.078 2.703 1.073 2.703 1.073-.355-1.59-1.863-2.247-1.863-2.247L31.65 14.722c-.158-.067-.741-.204-1.638.165-.724.299-3.09 1.406-3.09 1.406L50.1 27.968Z" fill="#616161"/><path d="M52.193 27.216 28.811 15.421l.773-.348 23.78 11.918-1.171.225Z" fill="#424242"/><path d="M56.457 28.76c-.165-.658-.443-1.294-1.227-1.625-1.002-.421-1.915-.51-3.406.064l-1.726.766v1.217l2.183-.97c1.107-.521 2.739-.409 3.146.804.447 1.33-.316 2.148-2.246 3.034l-3.136 1.414v1.223l3.607-1.607c1.6-.64 3.42-1.842 2.805-4.32Z" fill="#424242"/></svg>