<svg width="71" height="70" viewBox="0 0 71 70" fill="none" xmlns="http://www.w3.org/2000/svg"><path d="M38.836 37.11h-4.514c0 7.158-1.48 10.027-1.48 10.027h7.474c0-.004-1.48-2.872-1.48-10.027Z" fill="#B7D5E5"/><path d="M27.523 47.514c-.024-.401.036-.928.036-.928s15.904-.661 17.166-.032c0 0 .17.584.053.963-.277.89-3.864 1.688-8.63 1.688-4.768 0-8.568-.76-8.625-1.691Z" fill="#2F7889"/><path d="M36.168 48.424c4.767 0 8.63-.756 8.63-1.688 0-.932-3.863-1.687-8.63-1.687-4.767 0-8.63.755-8.63 1.687s3.863 1.688 8.63 1.688Z" fill="#B7D5E5"/><path d="M38.836 37.11h-4.514c0 2.335-.158 4.212-.369 5.682l5.383.808c-.275-1.571-.5-3.705-.5-6.49Z" fill="#69A1BA"/><path d="M33.176 45.154s-1.307.535-1.012.925c.457.612 1.733.995 4.82 1.202 2.17.144 1.318.75-.72.872-1.432.084-8.29.14-8.698-1.29-.33-1.164 4.633-1.709 5.61-1.709Zm15.438 5.291h-24.93c-.34 0-.682.19-.872.492L20.077 54.7a.522.522 0 0 0 .422.83h31.335a.521.521 0 0 0 .422-.83l-2.77-3.797a1.1 1.1 0 0 0-.872-.457Z" fill="#EEE"/><path d="M26.187 52.115h-1.709l.229-.415h1.709l-.229.415Zm2.696 0h-1.708l.19-.415h1.782l-.264.415Zm2.581 0h-1.747l.267-.415h1.705l-.225.415Zm2.541 0h-1.708l.267-.415h1.631l-.19.415Zm2.542 0H34.8l.155-.415h1.44l.152.415Zm2.542 0H37.38l-.19-.415h1.635l.264.415Zm2.658 0H40l-.303-.415h1.709l.34.415Zm2.542 0h-1.747l-.303-.415h1.748l.302.415Zm3.451 0h-2.618l-.303-.415h2.658l.264.415Zm-1.328.685h1.709l-.302-.456H46.07l.341.457Zm-2.805 0h1.705l-.34-.456h-1.71l.345.457Zm-2.58 0h1.705l-.264-.456h-1.747l.306.457Zm-2.771 0h1.705l-.302-.456h-1.632l.229.457Zm-2.468 0h1.709l-.19-.456h-1.442l-.077.457Zm-2.468 0h1.709l.116-.456h-1.67l-.155.457Zm-2.693 0h1.709l.228-.456h-1.67l-.267.457Zm-3.034 0h1.744l.267-.456h-1.748l-.263.457Zm-3.491 0h2.581l.264-.456h-2.62l-.225.457Zm16.317.682h1.743l-.302-.457h-1.744l.303.457Zm-2.733 0h1.705l-.225-.457h-1.63l.15.457Zm-3.266 0h1.748l-.038-.457h-1.554l-.155.457Zm-3.072 0h1.747l.151-.457h-1.67l-.228.457Zm-3.224 0h1.705l.267-.457h-1.708l-.264.457Zm-4.366 0h3.456l.263-.457h-3.452l-.267.457Zm19.582 0h5.16l-.302-.457h-5.16l.302.457Zm3.91.682h1.743l-.341-.453h-1.744l.341.453Zm-3.19 0h1.71l-.342-.453H43.72l.34.453Zm-13.774 0h11.725l-.264-.453H30.55l-.264.453Zm-3.681 0h1.744l.19-.453h-1.67l-.264.453Zm-3.262 0h1.705l.19-.453h-1.67l-.225.453Z" opacity=".57" fill="#69A1BA"/><path d="M51.88 56.594H20.455a.587.587 0 0 1-.576-.57v-.843h32.583v.843a.596.596 0 0 1-.584.57Z" fill="#2F7889"/><path d="M48.613 50.8c.215 0 .457.127.587.31l2.89 3.962c.018.021.018.046.007.07a.062.062 0 0 1-.06.035H20.298c-.028 0-.045-.01-.06-.035a.058.058 0 0 1 .008-.07l2.854-3.924.007-.01.007-.01a.688.688 0 0 1 .573-.328h24.926Zm0-.355h-24.93c-.34 0-.681.19-.871.492l-2.855 3.924a.421.421 0 0 0 .341.668h31.743a.42.42 0 0 0 .34-.668l-2.889-3.962a1.13 1.13 0 0 0-.879-.454Z" fill="#B7D5E5"/><path d="M53.556 41.006H18.78a1.21 1.21 0 0 1-1.21-1.21V16.242c0-.668.542-1.21 1.21-1.21h34.773c.668 0 1.21.542 1.21 1.21v23.554a1.204 1.204 0 0 1-1.207 1.21Z" fill="#69A1BA"/><path d="M53.556 40.384H18.78a1.21 1.21 0 0 1-1.21-1.21V15.62c0-.668.542-1.21 1.21-1.21h34.773c.668 0 1.21.542 1.21 1.21v23.554a1.206 1.206 0 0 1-1.207 1.21Z" fill="#B7D5E5"/><path d="M53.307 16.298H19.029v22.19h34.278v-22.19Z" fill="url(#a)"/><path d="M19.43 15.458h3.934" stroke="#EEE" stroke-width="1.06" stroke-miterlimit="10" stroke-linecap="round"/><defs><radialGradient id="a" cx="0" cy="0" r="1" gradientUnits="userSpaceOnUse" gradientTransform="translate(30.003 11.18) scale(21.4359)"><stop stop-color="#2F7889"/><stop offset="1" stop-color="#424242"/></radialGradient></defs></svg>