<svg width="71" height="70" viewBox="0 0 71 70" fill="none" xmlns="http://www.w3.org/2000/svg"><path d="M24.8 41.125 20.58 35.5h-2.81a2.812 2.812 0 0 0-2.813 2.813V53.78a2.812 2.812 0 0 0 2.813 2.813h2.812l4.219-5.625h7.031v-9.844H24.8Z" fill="#595858"/><path d="M20.23 35.5h-1.055v21.094h1.055V35.5Z" fill="#3A3A3A"/><path d="m56.127 38.822-1.796.896h-5.625v4.22h5.625l1.796.896a.702.702 0 0 0 1.017-.63v-4.753a.701.701 0 0 0-1.017-.629Z" fill="#595858"/><path d="M45.894 29.875H36.05v9.844h9.844v-9.844Z" fill="#3F3F3F"/><path d="M25.679 41.125h-1.055v9.844h1.055v-9.844Z" fill="#787676" opacity=".5"/><path d="M28.93 41.125h-1.054v9.844h1.055v-9.844Z" fill="#3A3A3A"/><path d="M30.425 36.906c6.213 0 11.25-5.037 11.25-11.25s-5.037-11.25-11.25-11.25-11.25 5.037-11.25 11.25 5.037 11.25 11.25 11.25Z" fill="#504F4F"/><path d="M49.058 36.906a7.734 7.734 0 1 0 0-15.468 7.734 7.734 0 0 0 0 15.468Z" fill="#504F4F"/><path d="M50.112 55.188h-18.28a2.812 2.812 0 0 1-2.813-2.813V39.719a2.812 2.812 0 0 1 2.812-2.813h18.281a2.812 2.812 0 0 1 2.813 2.813v12.656a2.812 2.812 0 0 1-2.813 2.813Z" fill="#504F4F"/><path d="M32.534 46.047c.387 0 .703.316.703.703a.705.705 0 0 1-.703.703.705.705 0 0 1-.703-.703c0-.387.317-.703.703-.703Zm0-.703a1.406 1.406 0 1 0 0 2.811 1.406 1.406 0 0 0 0-2.811Z" fill="#3A3A3A"/><path d="M32.534 48.86c.387 0 .703.316.703.703a.705.705 0 0 1-.703.703.705.705 0 0 1-.703-.703c0-.387.317-.704.703-.704Zm0-.704a1.406 1.406 0 1 0 0 2.812 1.406 1.406 0 0 0 0-2.812Z" fill="#3A3A3A"/><path d="M36.05 50.617c-.58 0-1.055-.474-1.055-1.054V46.75c0-.58.475-1.055 1.055-1.055H47.3c.58 0 1.055.475 1.055 1.055v2.813c0 .58-.475 1.054-1.055 1.054H36.05Z" fill="#504F4F"/><path d="M47.3 46.223c.292 0 .527.235.527.527v2.813a.527.527 0 0 1-.527.527H36.05a.527.527 0 0 1-.527-.528V46.75c0-.292.235-.527.527-.527H47.3Zm0-1.055H36.05c-.872 0-1.582.71-1.582 1.582v2.813c0 .871.71 1.581 1.582 1.581H47.3c.872 0 1.582-.71 1.582-1.581V46.75c0-.872-.71-1.582-1.582-1.582Z" fill="#3A3A3A"/><path d="M30.425 33.566a7.91 7.91 0 1 0 0-15.82 7.91 7.91 0 0 0 0 15.82Z" fill="#504F4F"/><path d="M30.425 18.273c4.07 0 7.383 3.312 7.383 7.383s-3.312 7.383-7.383 7.383-7.383-3.312-7.383-7.383c0-4.07 3.312-7.383 7.383-7.383Zm0-1.054a8.44 8.44 0 0 0-8.438 8.437 8.44 8.44 0 0 0 8.438 8.438 8.44 8.44 0 0 0 8.437-8.438 8.44 8.44 0 0 0-8.437-8.437Z" fill="#3A3A3A"/><path d="M49.058 33.566a4.395 4.395 0 1 0 0-8.789 4.395 4.395 0 0 0 0 8.79Z" fill="#504F4F"/><path d="M49.058 25.305a3.87 3.87 0 0 1 3.867 3.867 3.87 3.87 0 0 1-3.867 3.867 3.87 3.87 0 0 1-3.868-3.867 3.87 3.87 0 0 1 3.868-3.867Zm0-1.055a4.923 4.923 0 0 0 0 9.844 4.923 4.923 0 0 0 0-9.844Z" fill="#3A3A3A"/><path d="M30.425 28.469a2.813 2.813 0 1 0 0-5.625 2.813 2.813 0 0 0 0 5.625Zm18.633 3.515a2.813 2.813 0 1 0 0-5.625 2.813 2.813 0 0 0 0 5.625Z" fill="#636262"/><path d="M32.534 47.453a.703.703 0 1 0 0-1.406.703.703 0 0 0 0 1.406Z" fill="url(#a)"/><path d="M32.534 50.266a.703.703 0 1 0 0-1.407.703.703 0 0 0 0 1.407Z" fill="url(#b)"/><defs><linearGradient id="a" x1="32.534" y1="45.959" x2="32.534" y2="47.372" gradientUnits="userSpaceOnUse"><stop stop-color="#FF1744"/><stop offset="1" stop-color="#D50000"/></linearGradient><linearGradient id="b" x1="32.534" y1="48.772" x2="32.534" y2="50.185" gradientUnits="userSpaceOnUse"><stop stop-color="#76FF03"/><stop offset="1" stop-color="#64DD17"/></linearGradient></defs></svg>