<svg width="71" height="70" viewBox="0 0 71 70" fill="none" xmlns="http://www.w3.org/2000/svg"><path d="M49.186 49.01c-6.936 6.937-18.77 10.069-28.314.52-9.545-9.548-6.416-21.378.52-28.314 3.843-3.853 8.676-6.139 13.623-6.458 5.396-.324 10.49 1.74 14.692 5.941 4.2 4.201 6.24 9.27 5.916 14.667-.323 4.943-2.615 9.816-6.437 13.644Z" fill="url(#a)"/><path d="M38.945 14.947c3.46.812 6.68 2.669 9.531 5.499 4.219 4.218 6.24 9.274 5.917 14.667-.33 4.957-2.623 9.819-6.451 13.648-4.49 4.489-11.032 7.382-17.68 6.275 7.066 1.716 14.154-1.255 18.924-6.026 3.822-3.828 6.114-8.701 6.437-13.648.324-5.396-1.715-10.466-5.916-14.667-3.168-3.167-6.845-5.118-10.762-5.748Z" fill="#EB8F00"/><path d="M46.93 26.908a2.03 2.03 0 0 0-2.42 1.128 39.225 39.225 0 0 1-6.753 8.955 39.037 39.037 0 0 1-8.954 6.75 2.043 2.043 0 0 0-1.128 2.419c.288.966 1.255 1.441 2.165 1.782 5.101 1.909 10.716.489 15.03-3.8l.042-.04c4.285-4.313 5.706-9.927 3.797-15.032-.338-.907-.816-1.877-1.78-2.162Z" fill="#422B0D"/><path d="m44.598 43.79-.02.021v.021l.02-.042Zm-6.493-6.532-.039.035-.035.039.074-.074Z" fill="#422B0D"/><path d="m38.105 37.258-.039.035-.035.039.074-.074Zm6.493 6.532-.02.021v.021l.02-.042Z" fill="#422B0D"/><path d="M47.875 39.15c-.18 0-.352.024-.52.038a7.658 7.658 0 0 0-5.028 2.334 8.474 8.474 0 0 0-2.545 5.144 9.043 9.043 0 0 0-.053.52c-.01.169.029.31.05.45a16.577 16.577 0 0 0 5.09-3.494l.042-.04a16.572 16.572 0 0 0 3.382-4.854 3.433 3.433 0 0 0-.418-.099Z" fill="#ED7770"/><path d="M44.51 28.037a39.225 39.225 0 0 1-6.753 8.954 39.037 39.037 0 0 1-8.954 6.75 2.043 2.043 0 0 0-1.128 2.419c.045.144.105.28.182.41.145-.048.282-.105.419-.171a29.685 29.685 0 0 0 11.869-7.411 29.77 29.77 0 0 0 7.238-11.324 4.75 4.75 0 0 0 .158-.443c-.182-.14-.39-.25-.611-.313a2.03 2.03 0 0 0-2.42 1.128Z" fill="#fff"/><path d="M38.031 37.517c2.064-1.997 3.414-3.958 5.038-6.349.404-.598.787-1.21 1.157-1.838l.267-.475a2.32 2.32 0 0 1 .239-.352c.162-.2.369-.355.608-.453a2.619 2.619 0 0 1 1.726-.028c1.143.548 2.138 2.503 2.011 2.137 0 0-.207-.819-.214-.83-.282-.703-.57-1.497-1.298-2.109a2.664 2.664 0 0 0-2.714-.31c-.418.19-.78.482-1.054.848a3.275 3.275 0 0 0-.352.545l-.235.464a26.193 26.193 0 0 1-1.055 1.818 35.923 35.923 0 0 1-4.75 6.257l-.056.057a34.713 34.713 0 0 1-6.138 4.686c-.598.352-1.203.703-1.818 1.055l-.478.242a3.069 3.069 0 0 0-.545.352c-.369.274-.66.636-.85 1.054a2.651 2.651 0 0 0 .35 2.669c.947 1.234 3.105 1.406 3.116 1.406.351.127-1.78-.78-2.328-1.923a2.496 2.496 0 0 1 0-1.677c.092-.246.243-.464.443-.633.11-.091.229-.169.352-.235l.474-.267a27.32 27.32 0 0 0 1.84-1.16c2.386-1.625 4.218-2.813 6.204-4.894" fill="#EB8F00"/><path d="M53.405 24.018c.422 2.686-2.046 5.232-4.286 5.534-1.575.211-3.333-.151-5.976-.808-.39-.074-.788-.19-1.224-.3a44.276 44.276 0 0 1-4.742-1.61.635.635 0 0 1-.398-.748.65.65 0 0 1 .253-.327 20.392 20.392 0 0 1 3.97-3.164c3.66-2.264 5.052-2.57 6.627-2.781 2.172-.355 5.319 1.273 5.776 4.204Z" fill="url(#b)"/><path d="M50.026 21.505c1.023.485 1.03 1.887-.53 2.109-1.003.134-6.16.619-5.559-.334.985-1.565 4.644-2.461 6.09-1.775Z" fill="#81D4FA"/><path d="m38.47 23.935-3.245 2.91 1.203-4.622c.01-.057.02-.11.024-.166a1.47 1.47 0 0 0-1.213-1.69 1.517 1.517 0 0 0-.576.017 2.11 2.11 0 0 0-1.544 1.863l-.854 8.73a.353.353 0 0 0 .236.439.346.346 0 0 0 .348-.088l7.274-4.598.144-.102c.879-.675 1.093-1.962.383-2.707-.541-.57-1.477-.524-2.18.014Z" fill="#422B0D"/><path d="M22.035 49.563c-.127-1.515-.13-2.879 1.238-6.77a19.637 19.637 0 0 1 2.155-4.367.617.617 0 0 1 .256-.302.608.608 0 0 1 .784.214 43.468 43.468 0 0 1 2.482 4.106c.19.387.38.731.531 1.083 1.16 2.352 1.86 3.923 1.986 5.439.18 2.155-1.694 4.988-4.292 5.15-2.83.162-5.006-2.443-5.14-4.553Z" fill="url(#c)"/><path d="M24.53 45.404c.764-.763 1.372 4.16 1.453 5.126.123 1.505-1.192 1.786-1.853.932-.942-1.196-.854-4.82.4-6.058Z" fill="#81D4FA"/><path d="m23.536 40.69 2.341-3.681-4.362 1.948-.148.06a1.477 1.477 0 0 1-1.87-.922 1.422 1.422 0 0 1-.074-.57 2.106 2.106 0 0 1 1.585-1.827l8.445-2.29a.353.353 0 0 1 .471.166.34.34 0 0 1-.032.355l-3.329 7.928a1.348 1.348 0 0 1-.074.162c-.52.977-1.758 1.406-2.608.822-.65-.443-.756-1.364-.345-2.151Z" fill="#422B0D"/><defs><radialGradient id="a" cx="0" cy="0" r="1" gradientUnits="userSpaceOnUse" gradientTransform="rotate(-45 58.987 -24.74) scale(20.1069)"><stop offset=".5" stop-color="#FDE030"/><stop offset=".92" stop-color="#F7C02B"/><stop offset="1" stop-color="#F4A223"/></radialGradient><radialGradient id="b" cx="0" cy="0" r="1" gradientUnits="userSpaceOnUse" gradientTransform="matrix(-1.44422 -10.99828 17.01037 -2.23369 40.17 23.724)"><stop offset=".46" stop-color="#29B6F6"/><stop offset="1" stop-color="#1E88E5"/></radialGradient><radialGradient id="c" cx="0" cy="0" r="1" gradientUnits="userSpaceOnUse" gradientTransform="matrix(-10.63831 .85108 -1.30266 -16.28298 26.796 38.909)"><stop offset=".46" stop-color="#29B6F6"/><stop offset="1" stop-color="#1E88E5"/></radialGradient></defs></svg>