<svg width="71" height="70" viewBox="0 0 71 70" fill="none" xmlns="http://www.w3.org/2000/svg"><path d="M19.736 30.205v-7.158l-.577.035v-4.408l5.562-.035v4.341h-.577v4.205l-4.408 3.02Z" fill="#AB5832"/><path d="M35.538 21.202 19.564 37.254l.122 14.84 31.553-.299.046-15.82-15.746-14.773Z" fill="#FFF3E1"/><path d="m18.966 49.489 1.104-.608V36.899l-1.027.686c-.003 0 .113 11.904-.077 11.904Zm31.722-11.943v11.26l1.103.609v-11.45l-1.103-.42Z" fill="#5F4E47"/><path d="M35.648 22.918 19.04 38.46v-3.92l16.625-15.746 16.127 16.7V38.8L35.648 22.918Z" fill="#BCAA93"/><path d="m17.412 33.87-.973 1.796 2.612-.039s16.295-15.849 16.646-15.863c.425-.017 16.088 16.14 16.088 16.14l2.316-.035-17.38-18.724-2.553-.168-16.756 16.892Z" fill="#AB5832"/><path d="M14.407 35.215c-.274.334-.004.51.218.51.221 0 2.773-.074 2.773-.074l17.593-17.117s.404-.415.692-.401c.313.014.718.411.718.411l17.676 17.329s2.015.007 2.334-.074c.349-.084.173-.415-.256-.876-.317-.34-18.187-18.017-18.482-18.323-.879-.907-1.308-1.434-2.137-1.4-.834.036-1.326.651-2.159 1.418-.246.232-18.854 18.457-18.97 18.597Z" fill="#ED6C31"/><path d="M45.871 41.417h3.604v-2.999a1.01 1.01 0 0 0-1.01-1.009h-2.594v4.008Zm-1.083 0v-4.008h-2.812c-.56 0-1.01.454-1.01 1.01v3.002h3.822v-.004Zm0 1.139h-3.821v2.812c0 .56.453 1.01 1.009 1.01h2.812v-3.822Zm1.083 0v3.821h2.595c.559 0 1.009-.453 1.009-1.009v-2.812H45.87ZM25.92 41.417h3.603v-2.999c0-.559-.453-1.009-1.008-1.009H25.92v4.008Zm-1.087 0v-4.008h-2.812c-.56 0-1.01.454-1.01 1.01v3.002h3.822v-.004Zm.001 1.139h-3.818v2.812c0 .56.453 1.01 1.009 1.01h2.812v-3.822h-.003Zm1.086 0v3.821h2.595c.558 0 1.008-.453 1.008-1.009v-2.812H25.92Z" fill="#A6CFD5"/><path d="M30.697 50.522s-.052-8.698 0-10.895c.053-2.194 2.113-4.092 4.5-4.011 2.953.102 4.472 1.761 4.581 3.902.11 2.141.11 11.138.11 11.138l-9.19-.134Z" fill="#D27857"/><path d="M31.798 50.993s-.042-9.267 0-10.983c.053-2.126 1.656-3.244 3.52-3.139 2.168.123 3.24 1.276 3.325 2.953.084 1.674.084 11.176.084 11.176l-6.929-.007Z" fill="#AB5932"/><path d="M37.606 43.438c-.007-1.526-.02-2.872-.042-3.283-.056-1.108-.844-1.97-2.373-2.022-1.234-.042-2.25.921-2.278 2.057-.01.418-.007 1.733 0 3.23l4.693.018Zm-4.682 1.712c.014 2.043.032 3.924.032 3.924l4.665.014s0-1.874-.007-3.916l-4.69-.022Z" fill="#D27857"/><path d="M37.62 44.222c-.017.496.183.897.77.897s.802-.275.844-.805c.035-.475-.292-.897-.844-.862-.548.039-.756.422-.77.77Z" fill="#FFBA02"/><path d="M40.988 53.89s3.825.038 6.589-.042c2.763-.081 4.763.042 5.175-.373.41-.411.404-3.916-1.512-4.866-1.762-.872-2.9.014-3.505.074-.798.081-1.786-.415-2.51-.429-2.992-.063-4.04 2.289-4.04 2.289l-.197 3.347Zm-22.88-.288c.32.299 2.763.31 5.713.288 2.95-.02 5.322.007 5.322.007l.493-2.977-.598-.496s.067-1.49-1.814-2c-1.3-.352-2.433.228-3.526.246-1.093.02-2.102-.475-3.319-.187-1.132.267-2.014 1.006-2.373 2.496-.25 1.034-.186 2.352.102 2.623Z" fill="#728037"/><path d="m28.792 57.005.025-3.11h.228l-.003-3.467h12.21l-.043 3.466h.267v3.03c-.003-.003-12.684.099-12.684.081Z" fill="#B0B0B0"/><path d="M41.473 55.644v1.276l-12.684.085.01-1.371 12.674.01Zm-12.435-3.1 12.182.004v1.342H29.038v-1.346Z" fill="#9B9B9B"/></svg>