<svg width="71" height="70" viewBox="0 0 71 70" fill="none" xmlns="http://www.w3.org/2000/svg"><path d="M52.365 15.425c0-.83-2.07-1.505-4.627-1.505-2.555 0-4.63.671-4.63 1.505 0 .706-1.202 6.468-1.522 8.184-.116.622.074.875.383 1.055.943.541 3.172.924 5.766.924 2.721 0 5.038-.418 5.892-1.002.229-.158.334-.548.211-1.248-.362-2.063-1.473-7.643-1.473-7.913Z" fill="#FFD600"/><path d="M47.739 24.938c2.895 0 5.242-.565 5.242-1.262 0-.697-2.347-1.262-5.242-1.262s-5.242.565-5.242 1.262c0 .697 2.347 1.262 5.242 1.262Z" fill="#FFFF8D"/><path d="M48.438 22.414H47.04V40.14h1.4V22.414Z" fill="url(#a)"/><path d="m52.836 53.633-.27 2.092c-.008.179-.201.355-.774.355-.51 0-.633-.218-.647-.362l-.214-2.082h1.905v-.003Z" fill="#C87D5E"/><path d="M50.984 54.17c.06.282.443.549.918.549.474 0 .857-.243.857-.545l.067-.545c-.053 0-1.846.003-1.898.01l.056.531Z" fill="#A65F3E"/><path d="m18.896 53.633.271 2.092c.007.179.2.355.774.355.51 0 .632-.218.646-.362l.215-2.082h-1.905v-.003Z" fill="#C87D5E"/><path d="M20.75 54.17c-.06.282-.444.55-.918.55-.475 0-.858-.243-.858-.546l-.067-.541c.053 0 1.846.003 1.899.01l-.057.528Z" fill="#A65F3E"/><path d="m53.82 41.472-.14 5.555-3.26-2.423.644-4.123 2.757.99Z" fill="#0B52A0"/><path d="M53.107 41.437c.366.19.668.168.886-.183.541-.858 1.266-.816 1.782-.777.493.035.82.26 1.125.882-.084-.358-.168-.963-1.262-1.188-1.244-.26-4.493-.288-4.493-.288-.063-.032-.08.78-.08.78l2.042.774Z" fill="#48CDED"/><path d="m17.954 41.472.14 5.555 3.26-2.423-.644-4.123-2.756.99Z" fill="#0B52A0"/><path d="M18.668 41.437c-.365.19-.668.168-.886-.183-.541-.858-1.265-.816-1.782-.777-.492.035-.82.26-1.125.882.084-.358.169-.963 1.262-1.188 1.245-.26 4.493-.288 4.493-.288.063-.032.08.78.08.78l-2.042.774Z" fill="#48CDED"/><path d="M51.082 35.622a6.271 6.271 0 0 0-.05-.288c-.13-.658-.607-1.157-1.201-1.248a44.18 44.18 0 0 0-6.575-.503c-2.59 0-4.813.25-6.12.436-.718.102-1.252.791-1.252 1.603 0-.816-.534-1.501-1.252-1.603a44.328 44.328 0 0 0-6.12-.436 44.05 44.05 0 0 0-6.575.503c-.594.091-1.065.59-1.202 1.248-.7 3.347.405 9.337.405 9.337h29.496c-.007 0 .973-5.73.446-9.049Z" fill="#3DAAE0"/><path d="M36.25 44.67c-.193.458-.633.461-.742 0-.109-.46 0-6.36 0-7.26 0-.9.373-1.873.373-1.873s.373 1.157.373 1.874c0 .717.19 6.803-.004 7.26Z" fill="#188AD6"/><path d="M53.592 46.805c.057-.004-1.909-2.134-3.157-2.349 0 0-2.27-.425-6.24-.425-3.969 0-8.318.64-8.318.64l-.01.161-.01-.165s-4.353-.64-8.319-.64c-3.969 0-6.24.426-6.24.426-1.248.214-3.213 2.345-3.157 2.348l15.883-.042 1.843 1.252 1.483-1.252 16.242.046Z" fill="#48CDED"/><path d="M55.628 40.403c-1.157-.099-1.888.481-1.997 1.708-.112 1.248-.091 3.245-.056 4.683a.893.893 0 0 0-.566-.327c-1.368-.186-4.346-.517-8.16-.517s-6.81.215-8.16.517c-.31.07-.573.415-.713.795-.035.098-.18.102-.215 0-.14-.38-.404-.724-.714-.798-1.325-.303-4.345-.517-8.16-.517-3.814 0-6.791.33-8.159.517a.892.892 0 0 0-.566.327c.035-1.438.053-3.432-.056-4.683-.11-1.227-.707-1.79-1.997-1.709-.749.046-1.375.619-1.333 1.463l.303 6.201c0 4.054 2.359 5.928 5.256 5.928h31.064c2.897 0 5.256-1.874 5.256-5.928l.302-6.201c.046-.84-.584-1.396-1.329-1.46Z" fill="#188AD6"/><path d="M52.977 50.732c-1.343.334-4.106.334-8.132.334-4.022 0-6.816-.21-8.131-.334-.296-.028-.552-.32-.703-.668a.161.161 0 0 0-.3 0c-.15.348-.404.64-.702.668-1.312.127-4.107.334-8.132.334-4.022 0-6.905 0-8.132-.334a1.185 1.185 0 0 1-.64-.425 2.195 2.195 0 0 0 2.011 1.701c2.627.155 28.857.155 31.486 0a2.2 2.2 0 0 0 2.008-1.694 1.097 1.097 0 0 1-.633.418Z" fill="#0B52A0"/><defs><linearGradient id="a" x1="47.738" y1="17.652" x2="47.738" y2="38.498" gradientUnits="userSpaceOnUse"><stop offset=".041" stop-color="#FFFF8D"/><stop offset=".567" stop-color="#C87D5E"/><stop offset=".676" stop-color="#BA7151"/><stop offset=".799" stop-color="#A65F3E"/></linearGradient></defs></svg>