<svg width="71" height="70" viewBox="0 0 71 70" fill="none" xmlns="http://www.w3.org/2000/svg"><path d="M19.904 24.92c.032-.09-.031-1.694.862-2.956s2.063-1.448 2.928-1.603c1.048-.186 3.576-.492 3.976.37.401.86.092 1.324.739 1.57.646.247-.524 1.695-.524 1.695l-7.98.925Zm31.026-.03s.253-1.558-.636-2.61c-1.336-1.585-3.428-2.098-5.407-2.098-.637 0-1.4.123-1.646.882-.14.44-.239.974-.548 1.034-.306.063 6.233 2.084 8.237 2.791Z" fill="#464C4F"/><path d="M26.726 41.079c-1.052.816-2.447 6.44-4.63 7.928-2.184 1.487-7.13.692-7.503-2.342-.327-2.675.267-8.3 1.758-14.048 1.49-5.748 2.637-8.596 6.12-9.528 2.796-.748 8.273-1.276 13.592-1.223 5.323.053 9.98.053 12.91 1.17 2.626 1.003 4.415 3.727 5.642 9.046 1.223 5.323 2.17 11.721 2.021 13.838-.214 3.087-4.577 5.055-7.822 2.661-2.584-1.905-3.087-6.757-4.416-7.45-1.328-.692-16.716-.797-17.673-.052Z" fill="#5E6268"/><path d="M45.783 39.63c-.253.316.33.788.745 1.818s1.484 4.44 2.521 5.393c1.294 1.184 2.303.963 2.5.59.197-.372-.921-1.336-2.236-3.484-1.315-2.148-3.003-4.974-3.53-4.317Zm-29.084-.876c-.39.07-1.424 5.26-.658 7.453.64 1.828 3.09 1.93 4.012 1.667 1.835-.524 2.411-2.303 1.993-2.5-.415-.197-1.87 1.195-3.245.549-1.533-.725-1.512-2.764-1.708-4.824-.176-1.856-.022-2.411-.394-2.345Zm9.664-11.507-1.41-.006.007-1.53s.028-1.234-1.294-1.206c-1.185.025-1.16 1.013-1.16 1.206L22.5 27.23s-1.343-.014-1.593-.007-1.184.021-1.184 1.227c0 1.139.966 1.22 1.184 1.227.218.007 1.586.007 1.586.007s-.01 1.276-.007 1.483c.003.208.042 1.185 1.227 1.185 1.294 0 1.227-1.184 1.227-1.184l.007-1.474s1.21.011 1.42.007c.303-.007 1.192-.087 1.206-1.293.01-1.192-1.062-1.16-1.21-1.16Z" fill="#9E9E9E"/><path d="M30.016 37.447a3.002 3.002 0 1 0 0-6.005 3.002 3.002 0 0 0 0 6.005Zm10.318.046a3.002 3.002 0 1 0 0-6.005 3.002 3.002 0 0 0 0 6.005Z" fill="#AFAFAF"/><path d="M30.012 36.378a2.007 2.007 0 1 0 0-4.015 2.007 2.007 0 0 0 0 4.015Zm10.322.066a2.007 2.007 0 1 0 0-4.014 2.007 2.007 0 0 0 0 4.014Z" fill="#C8C8C8"/><path d="M43.17 30.173a1.617 1.617 0 1 0 0-3.235 1.617 1.617 0 0 0 0 3.235Z" fill="#2086FA"/><path d="M46.377 33.27a1.617 1.617 0 1 0 0-3.234 1.617 1.617 0 0 0 0 3.234Z" fill="#06AC48"/><path d="M49.605 30.43a1.617 1.617 0 1 0 0-3.235 1.617 1.617 0 0 0 0 3.235Z" fill="#F72E26"/><path d="M46.405 27.129a1.617 1.617 0 1 0 0-3.235 1.617 1.617 0 0 0 0 3.235Z" fill="#FDB700"/></svg>