<svg width="71" height="70" viewBox="0 0 71 70" fill="none" xmlns="http://www.w3.org/2000/svg"><path d="m38.14 48.77-2.38 6.768s5.003-.066 6.458-.214 4.152-1.093 4.588-2.549c.436-1.455-.366-7.21-.366-7.21s2.187-.584 3.207-1.748c1.019-1.163.727-3.058.653-4.37-.073-1.31-.126-12.174-.291-13.475-.25-1.94-.946-3.716-2.113-5.024-1.168-1.308-2.521-1.926-3.006-2.169-.619-.313-2.598-.802-2.598-.802L38.14 48.772Z" fill="#615555"/><path d="M24.714 21.647c-.056.116-1.213 1.04-1.241 1.99-.028.953.144 1.72.26 2.366.109.612.337 1.72.337 1.72l18.419-.103s.714-.66.605-1.845c-.173-1.906-.981-2.859-1.702-3.723-.72-.865-10.013-2.279-10.013-2.279s-6.637 1.818-6.665 1.874Z" fill="#4A4240"/><path d="M43.027 15.604s.686.222 1.603 1.417c.767.995.51 2.32.078 3.639-.348 1.065-1.143 2.609-2.23 2.373-.882-.19-4.355-1.283-7.147-1.712-3.575-.549-5.91-.436-8.321.369-2.292.763-3.533 1.951-3.533 1.951s-.099-1.37.21-2.137c.31-.767 3.6-2.373 3.6-2.373l15.74-3.527Z" fill="#91837F"/><path d="M40.608 20.466c1.297.13 2.222-.805 2.644-2.299.421-1.494.316-2.155.123-2.383-.19-.229-4.451-2.289-9.851-1.828-5.4.46-6.782 2.13-7.583 2.91-1.378 1.34-2.342 3.699-2.271 4.711 0 .021.801-1.536 5.987-2.144 5.895-.69 9.422.882 10.95 1.034Z" fill="#BFB3B3"/><path d="M24.18 28.51s-.267-1.034-.039-1.34c.229-.306 1.111-1.072 2.45-1.34 1.34-.266 2.718.078 2.718.078l5.017-1.723s.345.5.612 1.073.611 1.8.611 1.8.363-.524 1.509-.869c1.15-.344 3.083.152 3.083.152l1.076 9.218s-.267 2.527-.19 7.622c.077 5.094.038 7.428-.19 9.228-.099.77-.791 2.64-3.79 3.1-2.862.44-7.889.957-11.64.651-3.755-.306-4.799-1.775-5.172-2.489-.383-.738.155-2.809.155-2.809l1.951-1.902s-.995-6.894-1.033-7.084c-.039-.193 2.872-13.366 2.872-13.366Z" fill="#948585"/><path d="M42.686 27.613c-.475-.587-2.514-1.79-4.19-1.15-1.752.672-2.64 2.884-2.068 4.722.39 1.255 1.54 2.465 2.507 3.523 1.037 1.139 1.515 2.007 1.962 2.007.446 0 .892-3.993 1.23-5.417.337-1.424.868-3.301.559-3.685Z" fill="#BFB3B3"/><path d="M36.038 26.636s-.278.141-.418.057c-.141-.085-.352-.57-.352-.57s-4.106 5.46-4.328 5.794c-.225.334-.144.47-.031.611.112.141 2.278-.312 3.589.662 1.368 1.019 1.42 3.005.89 3.761-.531.752-2.156.805-3.22.018-.525-.387-2.792-1.572-5.643-1.572-1.189 0-3.287.204-3.287.204l-1.273 1.167 1.255 1.758 5.045 1.8.745-1.195s4.38.46 5.854.214c1.473-.246 2.686-1.427 2.429-3.656-.236-2.039-1.645-2.935-2.33-4.514-.592-1.364.01-2.728.22-3.238.173-.408.855-1.3.855-1.3Zm-6.532 14.425 2.932 1.273s1.642.39 1.867.861c.144.299-.021.84-.801.615-.45-.13-2.542-.71-3.161-.861-.76-.186-4.866-.411-5.843-.158-.735.19-1.695.946-2.229.815-.513-.123-.471-.443-.478-1.016-.003-.33 1.104-1.058 1.104-1.058l5.804-.738.805.267Z" fill="#615654"/><path d="M23.782 43.933c-.348.802 2.032 1.768 3.22 1.804 2.67.08 4.174-1.498 4.146-1.642-.064-.288-2.584-.327-4.226-.348-1.501-.018-3.017-.102-3.14.186Z" fill="#615654"/><path d="M30.568 35.32c.429.158 1.585-.123 2.657-.658 1.073-.538 1.635-.903 1.61-1.146-.024-.242-.73-.83-1.659-.928-.97-.102-1.578.042-1.803.267-.317.317-1.537 2.198-.805 2.465Z" fill="#BFB3B3"/><path d="M27.734 36.251c-.643.088-.313 1.006 0 1.494.341.535.678.893 1.076.964.397.07 2.383.094 2.362-.563-.02-.657-2.573-2.01-3.438-1.895Zm-2.704.233c-.361-.12-1.142.548-1.226.816-.084.277.506 1.216 1.41 1.002.636-.148.137-1.713-.183-1.818Z" fill="#4A4240"/><path d="M34.329 24.183c.02.478-3.97 6.859-4.44 7.629-.471.77-1.593 2.612-1.924 2.903-.404.363-1.76.739-2.47.791-1.776.138-2.655.746-2.866 1.171-.211.426 1.367 1.835 2.5 2.113 1.131.278 3.543.194 3.993.383.45.19 1.343.956 2.046 1.364.703.408 1.667 1.094 1.646 1.456-.022.362-.176.397-.493.316-.372-.095-1.944-.57-2.879-.678-1.698-.197-4.19-.285-5.614.08-.784.201-2.208.915-2.008 1.562.18.573.475 1.005.897 1.536.365.46 1.069 1.687 1.515 2.412.45.724 1.325 1.92 3.027 2.042 1.983.144 2.756-.847 3.677-2.088.918-1.238 1.452-2.52 2.753-2.37 1.3.151 1.578 1.772 1.814 2.925.236 1.153.96 4.272.598 4.996-.362.724-.96.791-2.029.98-1.069.194-5.892.876-8.796.472-2.904-.404-4.718-1.343-4.89-2.317-.172-.974.235-1.378.299-3.255.063-1.878-.148-10.628.685-14.218.833-3.589 2.24-5.54 3.073-6.201.833-.661 2.556-1.322 2.928-1.122.373.2-1.578 4.335-1.578 4.335s1.234-.344 1.35-.633c.116-.288 3.301-7.178 3.906-7.523.604-.345 1.213-.285 1.93-.056.72.242 1.35.995 1.35.995Z" fill="#BFB3B3"/><path d="M24.963 28.598c-.408-.27-1.005.144-1.262.689-.256.545-.056 1.033.2 1.15.257.115.77-.004 1.122-.546.313-.492.37-1.008-.06-1.293Zm6.817-5.608c-1.247.007-1.862.644-2.523 1.786-.721 1.248-.904 2.7-1.937 4.279-1.034 1.578-2.124 2.956-2.584 3.389-.461.432-1.466 1.666-.806 2.24.661.572 1.579-.317 2.212-1.122.633-.805 1.951-3.245 2.612-4.279.66-1.033 3.217-4.394 3.646-5.168.263-.474.077-1.128-.62-1.125Zm-7.22 16.26c-.433-.101-.833-.087-1.15.317-.316.4-.38.939.056 1.09.574.2 1.006 0 1.35-.373.268-.285.349-.89-.256-1.033Zm.805 11.971c-.805.088-.718 1.15-.545 1.579.172.428.66.689 1.234.516.573-.172.66-.805.488-1.322-.172-.516-.436-.85-1.177-.773Zm14.252-24.553c-.847.028-1.163.267-1.452.822-.323.619.025 1.1.58 1.14.679.049 1.115-.145 1.526-.823.295-.485.074-1.164-.654-1.14Zm-1.6 2.542c-.387-.036-.555.144-.63.41-.073.268.12.486.388.51a.58.58 0 0 0 .58-.361c.098-.218-.07-.535-.338-.56ZM26.56 16.276s.837-.809 1.962-1.255c1.582-.63 2.837-.791 2.837-.791s.847-.088 1.065.179c.278.337-.218.798-.218.798s.728-.098.921.267c.194.362.05.946-.822.97-.872.025-.605-.752-.605-.752s-.58.292-1.065.412c-.486.119-1.115-.025-1.115-.025s-1.037 1.645-2.253 1.308c-1.006-.274-.707-1.111-.707-1.111Zm-1.147 2.841c.299.284.89.15 1.206-.334.32-.485.285-.988 0-1.206-.285-.218-.823-.05-1.121.334-.3.383-.44.872-.085 1.206Z" fill="#D4CCCD"/></svg>