<svg width="71" height="70" viewBox="0 0 71 70" fill="none" xmlns="http://www.w3.org/2000/svg"><path d="M40.47 19.59c-10.736-5.663-20.51-1.627-24.032 3.889-1.153 1.803-1.969 5.084-1.937 7.685.063 5.354 3.027 11.32 9.422 17.34 7.868 7.403 15.897 6.756 18.45 6.134 3.213-.784 5.368-1.452 5.038-4.447-.043-.394-.38-1.108-.89-1.42-1.635-.992-5.048-1.509-6.655-3.896-2.334-3.477.57-3.653 3.35-2.166 2.978 1.593 4.68 2.588 7.668 2.314 2.19-.2 5.376-1.523 5.808-5.217.387-3.344-4.493-14.028-16.221-20.215Zm4.385 18.17c-.823 1.251-2.855.822-4.187-.36-1.333-1.18-1.505-3.15-.64-3.923.879-.784 2.531-.604 3.864.577 1.328 1.185 1.606 2.721.963 3.706Z" fill="#AC5810"/><path d="M40.942 18.315c-10.737-5.664-20.535-1.284-24.058 4.232-3.526 5.52-1.993 15.74 7.506 24.68 7.868 7.404 15.898 6.757 18.45 6.135 3.213-.784 5.48-2.313 4.068-4.265-.974-1.346-4.465-2.362-6.571-5.498-2.335-3.477.57-3.653 3.35-2.165 2.978 1.592 4.68 2.587 7.668 2.313 2.19-.2 5.502-1.895 5.403-5.32-.102-3.364-4.088-13.921-15.816-20.112Zm4.943 19.346c-1.002 1.083-3.136.788-4.768-.654-1.627-1.445-2.137-3.49-1.135-4.57 1.002-1.083 3.136-.787 4.767.654 1.631 1.441 2.137 3.49 1.136 4.57Z" fill="#F2A259"/><path d="M30.012 42.562c.404-1.034 3.28-2.166 5.923-.285.742.527 1.67 1.87 1.575 3.558-.309 5.512-9.355 1.483-7.498-3.273Z" fill="#EEE"/><path d="M21.613 33.214c.925-1.477 3.171-1.645 5.136-.37 1.751 1.136 3.213 3.931 1.055 5.76-1.157.98-3.157.372-4.391-.574-1.498-1.142-2.795-3.227-1.8-4.816Z" fill="#2686C6"/><path d="M33.545 20.33c.285-1.171 2.271-1.371 3.677-.847 2.43.907 3.53 3.311 2.634 4.65-1.312 1.959-4.17 1.287-5.253.166-1.838-1.899-1.297-2.988-1.058-3.97Z" fill="#FFEE58"/><path d="M47.622 26.06c1.947.885 2.2 2.288 1.828 3.311-.232.633-.707 1.501-1.677 1.579-1.642.133-1.87-1.224-3.041-1.596-.984-.313-1.385-1.66-.998-2.563.358-.834 1.406-1.864 3.888-.732Z" fill="#7CB342"/><path d="M36.814 46.887c-.485.44-2.169.98-4.306-.355-.725-.454-1.417-1.111-1.807-2.096-.306-.773-.24-1.518-.102-1.849.393-.953.995-1.128.995-1.128-.605-.043-1.748.759-1.937 1.81-.06.33-.486 2.398 2.253 4.272 2.36 1.617 5.847 1.466 5.618-1.79-.105.401-.404.858-.714 1.136Z" fill="#B0B0B0"/><path d="M28.83 35.904c-.066 1.255-1.536 1.915-2.355 1.919-2.317.004-4.398-1.452-4.542-4.043-.025-.464.204-1.136.204-1.136-.306.13-.739.791-.83 1.164-.541 2.236 1.712 4.841 4.085 5.369 1.202.267 2.718-.145 3.27-1.22.393-.767.316-1.424.168-2.053Z" fill="#01579B"/><path d="M36.938 24.302c-1.575-.18-2.447-1.21-2.675-1.445-.626-.654-1.013-1.29-.788-2.232.07-.302.243-.69.454-.907-.257.084-.672.636-.802.935-.133.299-.619 1.42.422 2.802.643.858 1.765 1.825 3.424 2.057 1.178.165 2.022-.257 2.725-.943.478-.467.689-1.522.404-2.067.046.397-.682 2.085-3.164 1.8Z" fill="#DF7F14"/><path d="M49.892 28.566c-.144-.53-.555-1.083-.597-1.11.179.344.534 1.377-.211 2.383-.376.506-1.508 1.128-2.844.046-.394-.32-.71-.637-1.42-.897-1.804-.664-1.017-2.5-.39-3.07a2.205 2.205 0 0 0-1.126 1.421c-.26.981.383 2.008 1.36 2.5 1.112.559 1.47 1.638 2.992 1.638.078 0 .159-.003.247-.01 1.026-.088 1.459-.486 1.771-.97.384-.605.394-1.29.218-1.93Z" fill="#558B2F"/><path d="M22.348 21.866c.801-.791 2.197-1.628 4.24-.563 1.23.64 2.66 1.392 2.014 3.994-.4 1.614-2.75 2.468-4.711.671-.777-.71-3.73-1.944-1.543-4.102Z" fill="#F44336"/><path d="M29.07 24.949c.024-.615-.292-1.364-.401-1.617.017.369.337 1.3-1.129 2.535a2.426 2.426 0 0 1-2.443.358c-.517-.204-1.259-1.058-1.79-1.273-1.972-.794-1.121-2.907-.843-3.195-.447.313-.826.812-.967 1.54-.183.952-.014 1.852 1.294 2.883 3.712 2.928 4.851 1.163 5.256.713.51-.548.994-1.265 1.023-1.944Z" fill="#C62828"/><path d="M36.382 19.605c-.517-.243-1.993-.172-2.278 1.058-.172.738.37 1.487.879 1.4.58-.1.27-1.003.619-1.26.53-.386 1.504-.857.78-1.198ZM25.49 21.398c-.509-.337-2.137-.34-2.625.907-.296.75.165 1.618.717 1.604.63-.014.327-.756.85-1.227.662-.595 1.773-.813 1.059-1.284Zm-.242 11.265c-.481-.306-1.909-.426-2.5.692-.432.823.163 1.73.68 1.705.587-.028.39-.963.766-1.174.573-.32 1.73-.794 1.054-1.223Zm8.202 9.362c-.516-.243-1.993-.173-2.278 1.058-.172.738.37 1.487.88 1.4.58-.1.27-1.003.618-1.26.527-.386 1.501-.857.78-1.198Zm13.247-15.849c-.464-.33-1.93-.524-2.43.636-.298.696.1 1.53.616 1.533.587.003.443-.939.833-1.129.587-.285 1.632-.576.981-1.04Z" fill="#fff"/></svg>