<svg width="71" height="70" viewBox="0 0 71 70" fill="none" xmlns="http://www.w3.org/2000/svg"><path d="M57.293 17.3c-.151-.991-.97-1.484-.97-1.484-1.203.152-8.142 3.161-8.142 3.161l-.229 1.951L32.97 35.606c-.148.148-.127.397.045.559l2.37 2.37c.183.154.44.154.573-.004 0 0 1.283-.447 2.802-2.152 1.012-1.135.727-1.796 1.258-2.39l9.939-11.124 1.832.053a.869.869 0 0 0 .784-.443c.467-.837 1.483-2.598 2.176-3.343.601-.647.837-.563 1.635-.795.78-.232 1.026-.288.91-1.037Z" fill="#2F7889"/><path d="M33.73 34.831s-1.272-1.448-2.569-.864c-1.733.78-.549 2.724-2.865 3.53-2.531.875-4.325 2.545-3.46 4.57.929 2.172 4.634 2.295 4.81 7.868.084 2.668 1.99 2.601 2.833 1.726 1.48-1.544 1.333-6.318 2.862-8.02 1.53-1.7 5.32-1.265 6.694-4.436 0 0-2.356 2.366-5.347.032-1.417-1.108-1.4-2.954-1.4-2.954l-1.557-1.452Z" fill="#FFFDE7"/><path d="M37.409 32.09s.154.158-.296-.228c-.963-.826-1.62 2.095-3.111.615-1.972-1.666-1.385-3.14.144-4.785.749-.805 1.072-1.177.925-2.116-.123-.798-.869-1.305-1.867-1.305-.974.057-2.707 1.357-4.374 3.832-2.534 3.762-1.332 5.76-3.972 7.77-2.637 2.008-8.462 2.718-8.863 7.808-.229 2.922 1.128 4.588 2.865 6.722 1.203 1.48 4.092 4.036 6.244 5.112 2.151 1.076 4.82 1.67 7.02.204 4.873-3.245 4.145-6.543 4.968-8.677.946-2.447 3.29-1.628 5.696-3.923 1.785-1.596 2.183-3.206 2.074-4.286-.116-1.107-1.094-2.264-2.011-2.116-.352-.165.035.868-.264 1.473-.756 1.536-1.969 2.433-3.575 1.167-1.298-1.023.225-3.646.225-3.646L38.23 34.51l-.822-2.419Z" fill="#C62828"/><path d="M36.656 31.337s.155.159-.295-.228c-.964-.826-2.943 1.824-4.43.344-1.382-1.374.615-3.505 2.088-4.94 1.266-1.001.06-2.291-.808-2.242-.974.056-3.46.605-5.126 3.08-2.535 3.761-1.332 5.758-3.973 7.77-2.123 1.613-5.509 2.235-7.643 5.08-.534.713-.956 1.047-1.223 2.727-.229 2.922 1.128 4.588 2.865 6.722 1.203 1.48 4.092 4.036 6.244 5.112 2.151 1.076 4.535 1.67 6.74.204 4.872-3.245 4-6.937 4.823-9.074.946-2.447 3.923-1.66 6.328-3.952 1.589-1.515 1.98-2.78 1.87-3.86-.077-.773-.622-1.121-1.03-1.311-.352-.165-.946.063-1.244.671-.756 1.537-1.97 2.433-3.576 1.168-1.297-1.023.039-3.945.039-3.945l-1.649-3.326Z" fill="#F44336"/><path d="M33.014 34.29c-.264-.2-1.677-1.096-2.904.032-1.322 1.217-.246 2.88-2.338 3.2-2.647.407-4.219 2.172-3.354 4.197.928 2.173 5.056 2.634 5.231 8.21.085 2.668 1.952 2.559 2.834 1.725 2.043-1.933.861-6.205 2.862-8.019 1.726-1.564 4.342-.71 5.593-2.9.222-.387.236-.728-.295-.506-.978.408-2.197.615-3.53-.69-1.086-1.068-.893-2.548-.893-2.548s-2.956-2.51-3.206-2.7Z" fill="#FFFDE7"/><path d="M32.537 47.326a1.099 1.099 0 0 0-.041-1.553 1.099 1.099 0 0 0-1.553.056 1.099 1.099 0 0 0 .042 1.553c.44.413 1.135.388 1.552-.056Z" fill="#82AEC0"/><path d="M30.943 45.832c.383-.425 1.118-.53 1.614-.123.242.197.407.5.432.83.025.326-.098.664-.323.91a1.222 1.222 0 0 1-.886.383 1.193 1.193 0 0 1-.855-.38c-.442-.47-.383-1.212.018-1.62Zm0 0a1.037 1.037 0 0 0-.278.784c.025.281.17.541.377.703.425.341 1.04.243 1.364-.113.337-.344.397-.966.028-1.37a1.004 1.004 0 0 0-.728-.331 1.038 1.038 0 0 0-.763.327Z" fill="#2F7889"/><path d="M32.213 50.289a.926.926 0 0 0-.034-1.31.926.926 0 0 0-1.309.049.926.926 0 0 0 .034 1.31.926.926 0 0 0 1.31-.05Z" fill="#82AEC0"/><path d="M30.87 49.024c.323-.359.942-.457 1.37-.113.208.166.356.426.38.71.025.282-.08.577-.278.788a1.047 1.047 0 0 1-.766.327 1.021 1.021 0 0 1-.731-.334c-.373-.408-.313-1.033.024-1.378Zm0 0a.861.861 0 0 0-.23.661.83.83 0 0 0 .324.584.843.843 0 0 0 1.122-.106c.274-.281.334-.787.035-1.128a.832.832 0 0 0-.605-.285.89.89 0 0 0-.647.274Z" fill="#2F7889"/><path d="m49.91 21.982-2.25-2.408-15.078 15.367c-.148.148-.127.397.045.559l2.38 2.285c.183.155.44.155.574-.003l14.33-15.8Z" fill="#F7CF92"/><path d="m47.16 19.979-.101-.405c-.278-.879.236-1.093.457-1.174 1.42-.513 6.124-2.404 7.144-2.665.875-.221 2.194-.154 2.295 1.15.032.422-.277.601-.685.703-.675.165-1.111.151-1.899 1.065-.671.777-1.68 2.437-2.127 3.224a.845.845 0 0 1-.734.43l-1.744-.166-2.605-2.162Z" fill="#F7CF92"/><path d="M30.774 35.704c.25.042.468.116.69.186.14.152.291.292.435.44l.876.875.875.876.44.44c.07.22.144.439.19.685-.247-.046-.465-.12-.686-.19l-.44-.44-.875-.875-.875-.875c-.148-.145-.289-.296-.44-.436a4.227 4.227 0 0 1-.19-.686Zm-2.707 2.71c.25.042.468.116.69.186.14.152.291.292.435.44l.876.875.875.876.44.44c.07.22.144.438.19.685-.247-.046-.465-.12-.686-.19l-.44-.44-.875-.875-.875-.876c-.148-.144-.289-.295-.44-.435a3.997 3.997 0 0 1-.19-.686Zm-1.417 2.019c.225.116.412.25.602.386.087.187.19.37.28.552l.57 1.1.57 1.101.285.548c0 .233.003.465-.029.71-.221-.119-.407-.252-.597-.386l-.285-.549-.566-1.1-.57-1.1c-.094-.183-.186-.37-.288-.549a4.483 4.483 0 0 1 .028-.713Z" fill="#82AEC0"/><path d="M23.469 45.21 47.55 20.282M23.915 45.615l24.033-25.024M24.361 46.023l23.952-25.088M24.811 46.427l23.854-25.133m-23.407 25.54 23.829-25.256M25.705 47.243l23.811-25.31" stroke="#82AEC0" stroke-width=".176" stroke-miterlimit="10" stroke-linecap="round"/><path d="M21.37 44.732c-.095.102-.12.236-.053.3l4.669 4.295c.067.064.2.029.295-.073l1.582-1.653c.095-.102.12-.235.053-.299l-4.669-4.296c-.067-.063-.2-.028-.295.074l-1.582 1.652Z" fill="#2F7889"/><path d="M28.007 31.017c-.284-.052-.439-.32-.327-.98.313-1.864 1.544-3.576 3.26-4.374.6-.281 1.16-.232 1.276.492.06.383-.148.756-.707 1.08-1.252.73-2.443 1.8-2.806 3.202-.133.507-.38.637-.696.58Z" fill="#FF7043"/><path d="M48.01 18.063c.178-.248.04-.651-.31-.901-.348-.25-.775-.252-.953-.004-.177.248-.038.651.31.901.349.25.776.252.953.004Zm1.41-.513c.177-.248.038-.652-.31-.902-.35-.25-.776-.252-.953-.004-.178.248-.04.651.31.901.348.25.775.252.952.004Zm1.406-.512c.177-.248.038-.651-.31-.901-.349-.25-.776-.252-.953-.005-.178.248-.04.652.31.902.348.25.775.252.953.004Zm1.408-.514c.177-.248.039-.651-.31-.901s-.775-.252-.953-.004c-.178.248-.039.651.31.901s.775.252.953.004Zm1.407-.512c.178-.247.039-.65-.31-.9s-.775-.253-.953-.005c-.177.248-.039.651.31.901s.776.252.953.004Zm1.411-.512c.178-.248.04-.652-.31-.902-.348-.25-.775-.251-.953-.004-.177.248-.038.652.31.902.349.25.776.251.953.004Z" fill="#82AEC0"/></svg>