<svg width="71" height="70" viewBox="0 0 71 70" fill="none" xmlns="http://www.w3.org/2000/svg"><path d="m41.51 39.968.574 1.518s-.879.419-.77 1.674c.109 1.255 1.048 1.958 1.85 2.067.99.137 1.782-.858 1.606-2.004a3.13 3.13 0 0 0-.967-1.803l-.021-1.322-2.271-.13Z" fill="#858585"/><path d="M23.845 21.978c.02-.116 1.417-1.375 2.422-2.19 1.009-.816 1.603-1.382 1.842-1.375.26.004 1.048.447 1.59.756a29.36 29.36 0 0 1 1.103.678l-1.009 1.783s-3.586 4.303-3.645 4.264c-.053-.038-2.303-3.916-2.303-3.916Z" fill="#00C1E9"/><path d="M26.288 25.023s1.88-2.307 2.753-3.277c.872-.97 1.765-1.898 1.765-1.898s.348.175.33.524c-.021.348-.176.618-.408.931-.232.31-3.47 4.479-3.47 4.479l-.97-.76Z" fill="#0D9ABB"/><path d="M40.234 28.099s12.523-11.51 12.681-11.563c.158-.053.703.052 1.533.313.833.26 2.26.935 2.236 1.09-.025.154-.183.987-.183.987S46.534 34.8 45.86 33.916c-.675-.881-5.625-5.817-5.625-5.817Z" fill="#00C1E9"/><path d="M46.338 32.87s9.787-14.242 9.935-14.429c.218-.277.042-.615-.197-.875-.242-.264-.44-.33-.44-.33s.788.295 1.14.527c.393.256.703.548.636.833-.067.285-10.128 15.585-10.17 15.497-.043-.088-.904-1.224-.904-1.224Z" fill="#0D9ABB"/><path d="M18.99 16.02s-.302-.236-.471-.036c-.169.2 1.515 9.7 1.515 9.7l4.04 2.795 9.393 8.451 8.719 3.463 2.039.664s1.926-1.31 1.926-1.392c0-.08-2.003-6.233-2.003-6.233L25.57 26.496l-6.58-10.477Z" fill="#9A9A9A"/><path d="M22.685 17.936c-.37-.405-3.692-1.916-3.692-1.916l5.084 10.993.668.749s2.165 2.186 4.44 3.898c2.275 1.713 4.194 2.486 5.843 3.354 2.018 1.062 3.674 1.6 4.992 2.173 1.603.7 3.01 1.09 3.723 2.043.654.872.482 1.828.482 1.828s1.332.608 2.963.98c1.632.377 5.19.83 6.1-1.31.91-2.142-.376-4.335-3.477-6.181-3.1-1.846-4.521-2.141-4.521-2.141l-.858-2.38s-2.246-1.87-3.663-2.408c-1.417-.535-7.383-1.607-7.383-1.607l-6.954-.83c-.003.004-3.456-6.922-3.747-7.245Z" fill="#C8C8C8"/><path d="M32.581 26.39c-.186.355.028.668 1.793 1.203 1.66.502 2.514.854 3.424 1.23.911.376 2.194 1.125 2.915 1.336.72.214 1.607.295 2.113-.348.306-.387-.053-1.097-1.125-1.74-1.072-.644-2.49-1.178-4.788-1.607-2.3-.422-4.064-.584-4.332-.074Z" fill="#E0E0E0"/><path d="M19.837 24.77c-.211.042-4.518 4.915-4.578 5.098-.06.182.398.794.398.794l2.443 1.069 7.175-5.007c-.003 0-5.133-2.014-5.438-1.954Z" fill="#00C1E9"/><path d="M15.26 29.868s2.433 1.202 2.921 1.142c.49-.06 7.106-4.285 7.106-4.285s.664.457.274.963c-.39.503-6.603 4.539-7.313 4.493-.597-.039-2.953-1.065-3.072-1.354-.25-.618.084-.96.084-.96Z" fill="#0D9ABB"/><path d="M32.827 36.305c-.316.116-3.322 3.895-4.06 4.784-.65.784-8.037 9.387-8.259 9.802-.221.415.359.939.359.939l4.148 1.659 13.384-11 2.894-3.808s-1.93-1.114-4.282-1.642c-2.352-.527-3.878-.843-4.184-.734Z" fill="#00C1E9"/><path d="M41.29 38.68S25.514 52.677 25.152 52.769c-.285.07-1.758-.32-2.978-.904-1.04-.495-1.663-.974-1.663-.974s-.443.5.109 1.273c.552.774 3.786 2.127 4.366 2.046.58-.084 1.52-1.023 2.32-1.687.802-.665 14.763-12.58 14.763-12.58s-.014-.439-.194-.716a1.553 1.553 0 0 0-.587-.545Z" fill="#0D9ABB"/><path d="M33.456 37.42c-.436-.219-.931.33-1.353.871-.422.541-8.666 10.382-8.937 10.744-.27.362-.482.752-.091.991.39.24.784-.18 1.142-.633.362-.45 8.997-10.743 9.24-11.014.242-.27.6-.657 0-.96Z" fill="#B4DDFA"/><path d="M30.205 28.9c-.271-.112-.496.064-.517.363-.021.298.102 1.441.162 1.613.063.187 2.51 1.568 2.707 1.568.088 0-.01-.664-.064-1.227-.073-.787-.112-1.34-.2-1.476-.06-.095-1.853-.742-2.088-.84Zm3.555 1.29c-.416-.137-.3.063-.289.4.004.18.264 2.202.285 2.339.02.137.028.327.457.534.453.222 2.517 1.29 2.717 1.389.197.098.257-.197.197-.594-.06-.398-.33-2.57-.408-2.71-.077-.141-2.731-1.28-2.96-1.358Zm4.467 1.84c-.218-.082-.352.073-.288.365.045.218.495 2.816.534 3.034.039.218.278.397.594.534.316.137 2.3 1.072 2.538 1.111.24.039.317-.278.18-.692-.137-.415-.717-2.3-1.305-3.073-.467-.619-1.74-1.09-2.253-1.28Zm5.96-1.93c-.173.123-.408.386-1.027.956-.714.654-1.505 1.037-1.477 1.463.021.372.387 1.1.876 2.102.464.95.907 1.909 1.05 2.123a.96.96 0 0 0 1.35.257 7.61 7.61 0 0 0 1.607-1.448c.616-.735.795-1.171.774-1.786-.021-.616-2.57-3.4-2.69-3.558-.122-.159-.246-.267-.463-.11Z" fill="#3B5361"/><path d="M51.594 46.65c.338.415 3.182-1.29 4.686-3.905 1.407-2.447 2.19-5.537 1.252-5.562-.939-.025-.777 1.723-1.167 3.051a9.236 9.236 0 0 1-2.408 4.075c-1.572 1.55-2.693 1.93-2.363 2.342Zm3.316-13.057c.161.268-2.033.65-4.297 3.723-2.401 3.256-2.246 4.887-2.264 5.467-.024.858-.197 1.667-.78 1.484-.405-.127-.686-.918-.166-3.104.52-2.187 2.05-4.75 3.766-6.054 2.394-1.825 3.586-1.776 3.74-1.516Z" fill="#E1E0DF"/><path d="M53.088 38.487s.39-1.511 1.378-2.89c.988-1.378 1.927-2.109 2.292-2.08.366.024.52.284.52.284l-2.682 5.583s.2.246.376.534c.215.355-.116.91-.116.91l-2.419.627-3.62 5.467s-.626-.106-.574-.858c.053-.756.598-2.215 1.484-3.337.886-1.121 2.148-1.673 2.148-1.673l.197-.745s-.37-.37-.13-.94c.31-.737 1.146-.882 1.146-.882Z" fill="#799FAE"/><path d="M53.925 38.842s.218.159.376.282c.158.123.323.288.323.288s1.146-1.34 1.793-2.668c.584-1.2 1.27-2.711.865-2.943-.408-.232-1.793 1.744-2.306 2.714-.517.97-1.051 2.327-1.051 2.327Zm-1.984.531s.292 1.023 1.15 1.266c1.083.302 1.884-.728 1.884-.728s.454.682.264 1.252c-.2.594-1.329.86-1.786.882-.457.017-.816-.018-.816-.018s-.495 1.614-1.367 2.89c-.767 1.118-2.046 2.328-2.447 2.011-.4-.316.5-1.88 1.118-2.844.816-1.273 2.092-2.356 2.092-2.356s-.306-.4-.362-.987c-.081-.806.27-1.368.27-1.368Z" fill="#40717A"/></svg>