<svg width="71" height="70" viewBox="0 0 71 70" fill="none" xmlns="http://www.w3.org/2000/svg"><path d="M36.36 14.009c-14.418 0-14.302 13.331-14.302 13.542 0 8.634.66 20.83 4.116 25.629 1.372 1.902 4.019 2.007 4.019 2.007l5.966-.007 5.966.007s2.65-.105 4.018-2.007c3.457-4.8 4.117-16.995 4.117-25.63-.003-.211.517-13.542-13.9-13.542Z" fill="#312D2D"/><path d="M36.36 14.009c-14.418 0-14.302 13.331-14.302 13.542 0 8.634.66 20.83 4.116 25.629 1.372 1.902 4.019 2.007 4.019 2.007l5.966-.007 5.966.007s2.65-.105 4.018-2.007c3.457-4.8 4.117-16.995 4.117-25.63-.003-.211.517-13.542-13.9-13.542Z" fill="url(#a)"/><path d="M53.04 56.573v-1.515c0-4.725-8.352-6.996-16.59-6.986-8.184.007-16.59 1.983-16.59 6.986v1.515h33.18Z" fill="#000"/><path d="M36.159 44.669h-3.192v3.509c0 1.585 1.3 2.872 2.904 2.872h.58c1.603 0 2.904-1.287 2.904-2.872v-3.51h-3.196Z" fill="#EDC391"/><path d="M47.806 32.67c0 7.67-4.753 12.202-8.887 13.658-.978.344-1.923.516-2.76.516-.844 0-1.793-.175-2.777-.523-2.113-.75-4.384-2.3-6.096-4.658a13.894 13.894 0 0 1-2.043-4.078 2.142 2.142 0 0 1-.077-.243 16.377 16.377 0 0 1-.654-4.672c0-9.535 5.6-14.031 11.647-14.031 6.047 0 11.647 4.496 11.647 14.03Z" fill="#F9DDBD"/><path d="m34.148 29.871 3.548-.745-10.41 12.537a5.328 5.328 0 0 1-.162-.225l.598-4.873-2.479 1.02a2.142 2.142 0 0 1-.077-.243l4.588-12.635 9.777-1.902-5.383 7.066Z" fill="url(#b)"/><path d="M30.38 35.468c.957 0 1.733-.803 1.733-1.793 0-.99-.776-1.793-1.733-1.793-.957 0-1.733.803-1.733 1.793 0 .99.776 1.793 1.733 1.793Zm11.56 0c.957 0 1.733-.803 1.733-1.793 0-.99-.776-1.793-1.734-1.793-.957 0-1.733.803-1.733 1.793 0 .99.776 1.793 1.733 1.793Z" fill="#312D2D"/><path d="M32.991 30.514c-.327-.432-1.08-1.058-2.542-1.058-1.462 0-2.218.63-2.541 1.058a.447.447 0 0 0-.007.545c.091.123.365.24.668.137.302-.102.893-.408 1.88-.415.988.008 1.579.313 1.881.415.303.102.577-.01.668-.137a.458.458 0 0 0-.007-.545Zm11.422 0c-.327-.432-1.08-1.058-2.542-1.058-1.462 0-2.218.63-2.541 1.058a.447.447 0 0 0-.008.545c.092.123.366.24.668.137.303-.102.893-.408 1.881-.415.988.008 1.579.313 1.881.415.302.102.577-.01.668-.137a.447.447 0 0 0-.007-.545Z" fill="#454140"/><path d="M37.516 36.927a.443.443 0 0 0-.112-.029h-2.49a.408.408 0 0 0-.112.029c-.225.091-.348.323-.242.573.105.25.6.945 1.6.945.998 0 1.494-.7 1.599-.945.105-.25-.018-.482-.243-.573Z" fill="#DBA689"/><path d="M39.12 39.768c-1.118.664-4.792.664-5.91 0-.643-.383-1.3.204-1.034.787.264.574 2.264 1.906 3.998 1.906 1.733 0 3.709-1.332 3.972-1.906.264-.583-.383-1.17-1.026-.787Z" fill="#444"/><path d="M36.36 14.009c-14.418 0-14.302 13.331-14.302 13.542 0 2.728.066 5.811.263 8.902l2.363-.008c-.021-1.026.7-7.372 2.84-7.853 7.861-1.769 12.309-5.938 12.309-5.938 1.156 2.524 4.774 4.988 6.071 5.927 1.065.77 1.501 6.521 1.48 7.868h2.602c0-.018.007-.035.007-.056.197-3.076.26-6.139.26-8.85.004-.203.524-13.534-13.894-13.534Z" fill="#312D2D"/><path d="M36.36 14.009c-14.418 0-14.302 13.331-14.302 13.542 0 2.728.066 5.811.263 8.902l2.363-.008c-.021-1.026.7-7.372 2.84-7.853 7.861-1.769 12.309-5.938 12.309-5.938 1.156 2.524 4.774 4.988 6.071 5.927 1.065.77 1.501 6.521 1.48 7.868h2.602c0-.018.007-.035.007-.056.197-3.076.26-6.139.26-8.85.004-.203.524-13.534-13.894-13.534Z" fill="url(#c)"/><path d="m53.698 43.516.032-.003c.604.063 1.15-.306 1.22-.83l.291-2.117c.07-.523-.365-1.002-.966-1.065-.605-.063-1.15.306-1.22.83l-.292 2.116c-.07.524.33 1.006.935 1.069Z" fill="url(#d)"/><path d="M53.115 48.177c-1.747.053-3.667-.32-4.247-2.088-.31-.946-.232-1.916-.035-2.823.218-1.006.235-1.515.165-2.31-.05-.584-.418-5.14-.418-5.14s-.225-.83.52-1.069c.82-.312 1.121.591 1.121.591l.887 6.272 3.86.44s.15-.25.235-.876c.039-.267-.01-.763.032-1.08.2-1.462.446-3.23.47-3.378.043-.253.317-.626.841-.552.524.074.665.46.64.714-.025.257-.215 2.306-.215 2.306-.056.985-.112 2.07-.02 3.052l.073.787c.12 1.27-.066 2.602-.618 3.593-.566 1.037-1.544 1.508-3.291 1.561Z" fill="url(#e)"/><path d="M51.856 43.593c.608.014 1.122-.4 1.15-.928l.12-2.43c.024-.527-.444-.966-1.052-.984-.608-.014-1.121.401-1.15.928l-.12 2.43c-.027.53.444.97 1.052.984Z" fill="url(#f)"/><path d="M53.698 42.106c-.678-.12-1.519-.271-2.324-.313-.112-.007-.225-.01-.337-.014-1.058-.018-1.828.573-2.212 1.898-.014.042-.024.084-.038.13a3.4 3.4 0 0 0-.06.253v.01a5.2 5.2 0 0 0-.067.377c-.067.44-.024.861.078 1.202.277 1.217 1.132 1.793 1.132 1.793s2.21 1.108 2.717 0c.506-1.107-.228-2.654-.228-2.654l-1.027-.608c.215-.264.527-.376 1.143-.341.193.01.429.035.717.063.028.004.38.042.404.042.39.021.696-.098.935-.365.31-.348.271-.939.296-1.22-.282-.028-.756-.187-1.129-.253Z" fill="url(#g)"/><path d="m32.728 56.572-.306-7.59a9.475 9.475 0 0 1-3.677.739c-2.075 0-3.896-.668-5.355-1.206-.998-.366-1.863-.686-2.513-.686-.795 0-1.118.693-1.118 2.394v6.35h12.969Z" fill="url(#h)"/><path d="M52.915 56.572v-6.349c0-1.698-.323-2.394-1.118-2.394-.643 0-1.543.31-2.58.672-1.55.538-3.48 1.205-5.64 1.205a9.778 9.778 0 0 1-3.74-.727l.042 7.593h13.036Z" fill="url(#i)"/><path d="m33.983 56.573-.608-4.198-11.637 2.187 1.445 2.01h10.8Z" fill="url(#j)"/><path d="M27.535 56.573h6.424l-.992-9.513-10.455 2.54 4.507 6.23.517.742Z" fill="url(#k)"/><path d="m49.065 56.573 1.417-1.97-11.795-2.228-.577 4.198h10.955Z" fill="url(#l)"/><path d="m44.22 56.572.893-1.283 4.51-6.23-10.272-1.979-1.216 9.492h6.085Z" fill="url(#m)"/><path d="m56.406 56.572-.053-9.14-7.984.028.004 9.112h8.033Z" fill="url(#n)"/><path d="M48.657 52.396a1.445 1.445 0 1 0 0-2.89 1.445 1.445 0 0 0 0 2.89Z" fill="#E1BEE7"/><path d="M52.387 52.386a1.445 1.445 0 1 0 0-2.89 1.445 1.445 0 0 0 0 2.89Z" fill="#D81B60"/><path d="M56.114 52.371a1.445 1.445 0 1 0 0-2.89 1.445 1.445 0 0 0 0 2.89Z" fill="#651FFF"/><path d="m25.704 43.902-7.987 3.301-.12-.232a.48.48 0 0 1-.08.06l-.44.257v9.285h-1.1V47.92a.63.63 0 0 1-.58-1.118l1.483-.864a.596.596 0 0 1 .165-.064l-.221-.443 7.45-4.475c-.015.13-.018.26-.015.394a3.159 3.159 0 0 0 1.445 2.552Z" fill="#5D5F61"/><path d="M27.412 44.05a2.802 2.802 0 1 0 0-5.604 2.802 2.802 0 0 0 0 5.604Z" fill="#434444"/><path d="m26.119 43.73-.415.172a3.159 3.159 0 0 1-1.43-2.946l.386-.229a2.793 2.793 0 0 0 1.459 3.002Z" fill="#727475"/><path d="M28.696 43.74a2.741 2.741 0 0 1-.46.187l-.004-.004a2.595 2.595 0 0 1-.418-.284c-.492-.398-.967-.995-1.35-1.695-.032-.06-.067-.12-.095-.18-.524-1.019-.742-2.024-.661-2.748a2.768 2.768 0 0 1 1.47-.563l.143-.01a2.8 2.8 0 0 1 2.563 4.12 2.432 2.432 0 0 1-.369.53 2.814 2.814 0 0 1-.819.648Z" fill="#434444"/><path d="M28.035 43.368c-.495-.398-.977-1.023-1.35-1.762-.611-1.198-.755-2.27-.566-2.847a2.588 2.588 0 0 0-.407.26c-.081.72.14 1.726.66 2.75.029.059.064.122.095.178.384.7.858 1.298 1.35 1.695.145.112.285.21.419.285l.003.003a2.7 2.7 0 0 0 .46-.186 2.056 2.056 0 0 1-.664-.376Z" fill="#5D5F61"/><path d="M55.224 40.31c-.063.474-.474 1.831-.474 1.831a10.106 10.106 0 0 0-1.449-.47 38.602 38.602 0 0 1-.183-1.526 27.637 27.637 0 0 1-.407 1.41 5.078 5.078 0 0 0-1.593-.022c-.028-.242-.134-1.08-.19-1.318-.042.21-.077.671-.12.886-.038.197-.087.411-.112.52a3.05 3.05 0 0 0-1.04.503 1.522 1.522 0 0 0-.465.47c-.02.033-.035.054-.035.054.338-.306.805-.475 1.241-.58 1.2-.289 2.764-.18 3.892.32.464.207.555.562.25.96-.447.586-1.213.32-1.828.267-.535-.046-1.42.02-1.579.678 1.195.186 1.62 1.498 1.59 2.563.442-.985.154-2.05-.904-2.742.678-.373 2.921.713 3.259-1.016.15-.78.168-2.423.147-2.788Z" fill="#EDBD82"/><defs><linearGradient id="b" x1="32.348" y1="25.935" x2="32.348" y2="40.989" gradientUnits="userSpaceOnUse"><stop stop-color="#EC008C"/><stop offset=".22" stop-color="#EA0188"/><stop offset=".421" stop-color="#E5057D"/><stop offset=".615" stop-color="#DC0B6B"/><stop offset=".804" stop-color="#CF1351"/><stop offset=".988" stop-color="#BF1D2F"/><stop offset="1" stop-color="#BE1E2D"/></linearGradient><linearGradient id="d" x1="52.754" y1="41.508" x2="55.25" y2="41.508" gradientUnits="userSpaceOnUse"><stop offset=".5" stop-color="#F9DDBD"/><stop offset="1" stop-color="#FFD29C"/></linearGradient><linearGradient id="e" x1="48.549" y1="41.432" x2="57.194" y2="41.432" gradientUnits="userSpaceOnUse"><stop offset=".5" stop-color="#F9DDBD"/><stop offset="1" stop-color="#FFD29C"/></linearGradient><linearGradient id="f" x1="50.776" y1="41.451" x2="53.154" y2="41.398" gradientUnits="userSpaceOnUse"><stop offset=".5" stop-color="#F9DDBD"/><stop offset="1" stop-color="#FFD29C"/></linearGradient><linearGradient id="g" x1="51.87" y1="42.501" x2="51.167" y2="47.913" gradientUnits="userSpaceOnUse"><stop offset=".5" stop-color="#F9DDBD"/><stop offset="1" stop-color="#FFD29C"/></linearGradient><linearGradient id="h" x1="26.246" y1="49.074" x2="26.246" y2="58.109" gradientUnits="userSpaceOnUse"><stop offset=".004" stop-color="#666"/><stop offset=".012" stop-color="#656565"/><stop offset=".274" stop-color="#484747"/><stop offset=".53" stop-color="#343131"/><stop offset=".776" stop-color="#272324"/><stop offset="1" stop-color="#231F20"/></linearGradient><linearGradient id="i" x1="46.378" y1="49.074" x2="46.378" y2="58.109" gradientUnits="userSpaceOnUse"><stop offset=".004" stop-color="#666"/><stop offset=".012" stop-color="#656565"/><stop offset=".274" stop-color="#484747"/><stop offset=".53" stop-color="#343131"/><stop offset=".776" stop-color="#272324"/><stop offset="1" stop-color="#231F20"/></linearGradient><linearGradient id="j" x1="27.86" y1="53.195" x2="27.86" y2="58.003" gradientUnits="userSpaceOnUse"><stop stop-color="#651FFF"/><stop offset=".931" stop-color="#540FED"/><stop offset="1" stop-color="#530EEB"/></linearGradient><linearGradient id="k" x1="28.235" y1="47.853" x2="28.235" y2="57.533" gradientUnits="userSpaceOnUse"><stop stop-color="#AB47BC"/><stop offset=".249" stop-color="#A745B8"/><stop offset=".476" stop-color="#9C3EAE"/><stop offset=".695" stop-color="#8A329C"/><stop offset=".907" stop-color="#702282"/><stop offset="1" stop-color="#621975"/></linearGradient><linearGradient id="l" x1="44.296" y1="53.195" x2="44.296" y2="58.003" gradientUnits="userSpaceOnUse"><stop stop-color="#651FFF"/><stop offset=".931" stop-color="#540FED"/><stop offset="1" stop-color="#530EEB"/></linearGradient><linearGradient id="m" x1="43.879" y1="47.871" x2="43.879" y2="57.531" gradientUnits="userSpaceOnUse"><stop stop-color="#AB47BC"/><stop offset=".249" stop-color="#A745B8"/><stop offset=".476" stop-color="#9C3EAE"/><stop offset=".695" stop-color="#8A329C"/><stop offset=".907" stop-color="#702282"/><stop offset="1" stop-color="#621975"/></linearGradient><linearGradient id="n" x1="52.387" y1="47.459" x2="52.387" y2="60.961" gradientUnits="userSpaceOnUse"><stop offset=".004" stop-color="#666"/><stop offset=".631" stop-color="#393637"/><stop offset="1" stop-color="#231F20"/></linearGradient><radialGradient id="a" cx="0" cy="0" r="1" gradientUnits="userSpaceOnUse" gradientTransform="matrix(16.7103 0 0 19.8869 36.159 33.544)"><stop offset=".794" stop-color="#454140" stop-opacity="0"/><stop offset="1" stop-color="#454140"/></radialGradient><radialGradient id="c" cx="0" cy="0" r="1" gradientUnits="userSpaceOnUse" gradientTransform="matrix(17.5036 0 0 21.2406 36.276 34.96)"><stop offset=".794" stop-color="#454140" stop-opacity="0"/><stop offset="1" stop-color="#454140"/></radialGradient></defs></svg>