<svg width="71" height="70" viewBox="0 0 71 70" fill="none" xmlns="http://www.w3.org/2000/svg"><path d="M21.912 21.806h-4.306a1.037 1.037 0 0 1-1.038-1.037V18.23c0-.574.464-1.038 1.037-1.038h4.307c.573 0 1.037.464 1.037 1.037v2.539a1.041 1.041 0 0 1-1.037 1.037Z" fill="#90A4AE"/><path d="M18.763 22.245h-1.407V18.59c0-.387.317-.703.704-.703.386 0 .703.316.703.703v3.656Z" fill="#94D1E0"/><path d="M27.932 20.586h-1.938a.7.7 0 0 1-.7-.7V17.95c0-.387.187-.555.7-.7.514-.144 1.449-.161 1.938 0 .4.134.7.313.7.7v1.937c0 .387-.317.7-.7.7Z" fill="#546E7A"/><path d="M56.633 28.707H14.445V49.85h42.188V28.707Z" fill="#212121"/><path d="M14.445 49.372v.96c0 .696.566 1.262 1.262 1.262h39.667c.696 0 1.262-.566 1.262-1.262v-.96h-42.19Z" fill="#B0BEC5"/><path d="M28.276 22.256h-2.633a1.554 1.554 0 0 1-1.554-1.554v-.228c0-.858.696-1.554 1.554-1.554h2.633c.858 0 1.554.696 1.554 1.554v.228a1.55 1.55 0 0 1-1.554 1.554Z" fill="#90A4AE"/><path d="M55.835 20.01H15.869c-.787 0-1.424.636-1.424 1.424v7.636h42.188v-8.262a.797.797 0 0 0-.798-.798Z" fill="#B0BEC5"/><path d="M52.586 27.42h-6.38a.675.675 0 0 1-.676-.675v-4.447c0-.373.303-.675.675-.675h6.381c.373 0 .675.302.675.675v4.45c0 .37-.299.672-.675.672Z" fill="#78909C"/><path d="M45.53 26.577v-4.205c0-.415.334-.749.75-.749h6.253c.352 0 .496.193.496.193l-7.256 5.422s-.243-.148-.243-.661Z" fill="#757575"/><path d="M51.848 22.682h-4.905v3.68h4.905v-3.68Z" fill="#212121"/><path d="M16.759 48.736h-1.716a.597.597 0 0 1-.598-.598V32.005c0-.33.268-.598.598-.598h1.716c.33 0 .597.267.597.598v16.133a.6.6 0 0 1-.597.598Zm39.269 0h-1.715a.597.597 0 0 1-.598-.598V32.005c0-.33.267-.598.597-.598h1.716c.33 0 .598.267.598.598v16.133c0 .33-.267.598-.598.598Z" fill="#616161"/><path d="M15.865 51.116a.705.705 0 0 1-.703-.703v-.858h1.406v.858a.703.703 0 0 1-.703.703ZM55.88 28.573h-1.405v-7.172c0-.386.316-.703.703-.703.387 0 .703.317.703.703v7.172Zm-38.917 0h-1.406v-7.172c0-.386.316-.703.703-.703.386 0 .703.317.703.703v7.172Zm38.215 22.543a.705.705 0 0 1-.703-.703v-.858h1.406v.858a.703.703 0 0 1-.703.703Z" fill="#B9E4EA"/><path d="M34.407 25.726a.145.145 0 0 1-.144-.144v-3.639c0-.077.063-.144.144-.144h8.163c.078 0 .144.063.144.144v3.639a.145.145 0 0 1-.144.144h-8.163Z" fill="#FCEBCD"/><path d="M42.535 21.978v3.572h-8.093v-3.572h8.093Zm.035-.355h-8.163a.321.321 0 0 0-.32.32v3.639c0 .175.144.32.32.32h8.163c.176 0 .32-.145.32-.32v-3.639c0-.176-.14-.32-.32-.32Z" fill="#78909C"/><path d="M35.73 25.047a.486.486 0 0 1-.486-.485v-1.596a.486.486 0 0 1 .97 0v1.596a.486.486 0 0 1-.485.485Zm1.373 0a.37.37 0 0 1-.369-.37V22.85a.369.369 0 1 1 .739 0v1.828a.37.37 0 0 1-.37.369Zm1.21 0a.27.27 0 0 1-.271-.27v-2.022a.27.27 0 0 1 .541 0v2.022a.27.27 0 0 1-.27.27Z" fill="#fff"/><path d="M38.489 50.574c6.366 0 11.527-5.161 11.527-11.528 0-6.366-5.16-11.527-11.527-11.527-6.367 0-11.528 5.16-11.528 11.527 0 6.367 5.161 11.528 11.528 11.528Z" fill="#616161"/><path d="M38.489 49.055c5.527 0 10.009-4.481 10.009-10.009 0-5.528-4.482-10.009-10.01-10.009-5.527 0-10.008 4.481-10.008 10.01 0 5.527 4.48 10.008 10.009 10.008Z" fill="#E0E0E0"/><path d="M38.49 46.194a7.147 7.147 0 1 0 0-14.294 7.147 7.147 0 0 0 0 14.294Z" fill="#2F7889"/><path d="M38.489 48.243a9.197 9.197 0 0 0 9.197-9.197 9.197 9.197 0 1 0-18.394 0 9.197 9.197 0 0 0 9.197 9.197Z" fill="#000"/><path d="M38.489 46.056a7.01 7.01 0 1 0 0-14.02 7.01 7.01 0 0 0 0 14.02Z" fill="#2F7889"/><path d="M36.829 33.165c-2.218.503-3.544 2.661-3.544 4.254 0 1.29.855.967 1.129.5.706-1.2 1.56-2.198 3.034-2.616.59-.17 1.28-.538 1.209-1.227-.098-.981-1.072-1.083-1.828-.911Z" fill="#94D1E0"/><path opacity=".25" d="M38.488 42.176a3.129 3.129 0 1 0 0-6.258 3.129 3.129 0 0 0 0 6.258Z" fill="#000"/></svg>