<svg width="71" height="70" viewBox="0 0 71 70" fill="none" xmlns="http://www.w3.org/2000/svg"><path d="m35.03 23.448-7.626-9.57a.322.322 0 0 1 .039-.438.318.318 0 0 1 .45.028l8.11 9.137a.318.318 0 0 1-.028.45l-.485.429a.318.318 0 0 1-.46-.036Zm1.958-.052-.436-.387a.35.35 0 0 1-.028-.495l8.065-9.092a.35.35 0 0 1 .495-.028.355.355 0 0 1 .043.485l-7.63 9.478a.359.359 0 0 1-.509.039Z" fill="#455A64"/><path d="M30.494 23.927c0-1.227 2.721-2.226 6.079-2.226 3.357 0 6.078.995 6.078 2.226H30.494Z" fill="#455A64"/><path d="M55.747 52.593H16.675c-.862 0-1.558-.724-1.558-1.614V24.856c0-.893.696-1.614 1.558-1.614H55.75c.858 0 1.557.724 1.557 1.614V50.98c-.003.889-.7 1.613-1.56 1.613Z" fill="#82AEC0"/><path d="M54.615 51.06H17.919a1.248 1.248 0 0 1-1.248-1.248V25.89c0-.69.559-1.248 1.248-1.248h36.696c.69 0 1.248.559 1.248 1.248v23.924c0 .689-.559 1.247-1.248 1.247Z" fill="#212121"/><path d="m19.122 47.306-1.688 2.654c-.295.464.021 1.093.57 1.097H47.13a.847.847 0 0 0 .756-1.217l-1.055-2.172-27.71-.362Z" fill="#B9E4EA"/><path d="M47.267 46.079c-.27 1.22-1.174 2.162-2.334 2.419-1.906.425-5.456.956-11.306.956-6.142 0-10.263-.584-12.48-1.016-1.228-.24-2.191-1.245-2.43-2.542-.552-2.981-1.245-8.94.028-16.383.235-1.378 1.287-2.436 2.598-2.615 2.366-.327 6.592-.763 12.284-.763 5.4 0 9.017.393 11.067.71 1.262.197 2.27 1.22 2.527 2.545 1.523 7.84.683 13.813.046 16.689Z" fill="#2F7889" stroke="#212121" stroke-width="1.406" stroke-miterlimit="10"/><path d="M54.102 49.946h-4.004a.734.734 0 0 1-.735-.735v-8.35c0-.407.33-.734.735-.734h4.004c.408 0 .735.33.735.735v8.35a.734.734 0 0 1-.735.734Zm-2-18.024a2.422 2.422 0 1 0 0-4.845 2.422 2.422 0 0 0 0 4.845Z" fill="#455A64"/><path d="M52.102 27.273a.4.4 0 0 0-.39.306l-.317 1.301a2.616 2.616 0 0 0 0 1.234l.316 1.3a.402.402 0 0 0 .781 0l.316-1.3a2.616 2.616 0 0 0 0-1.234l-.316-1.3a.405.405 0 0 0-.39-.307Z" fill="#82AEC0"/><path d="M52.102 38.182a2.422 2.422 0 1 0 0-4.844 2.422 2.422 0 0 0 0 4.844Z" fill="#455A64"/><path d="M50.39 34.34a.402.402 0 0 0-.014.495l.798 1.073c.25.334.573.604.949.787l1.202.584a.401.401 0 0 0 .5-.601l-.799-1.073a2.608 2.608 0 0 0-.949-.787l-1.202-.584a.406.406 0 0 0-.485.106Z" fill="#82AEC0"/><path d="M24.637 28.61c.59-.071 1.709-.022 2.103 1.177.393 1.199-.471 1.522-.935 1.877-1.333 1.016-1.994 1.403-2.796 2.51-.64.886-1.757.609-2.091.025-.267-.47-.464-1.983.102-2.981 1.22-2.138 3.027-2.538 3.617-2.609Z" fill="url(#a)"/><defs><linearGradient id="a" x1="24.031" y1="21.355" x2="23.664" y2="34.683" gradientUnits="userSpaceOnUse"><stop stop-color="#fff"/><stop offset="1" stop-color="#fff" stop-opacity="0"/></linearGradient></defs></svg>