<svg width="71" height="70" viewBox="0 0 71 70" fill="none" xmlns="http://www.w3.org/2000/svg"><path d="M55.818 25.169a5.348 5.348 0 0 0-3.775-3.776c-3.333-.893-16.69-.893-16.69-.893s-13.355 0-16.684.893a5.348 5.348 0 0 0-3.776 3.776C14 28.498 14 35.449 14 35.449s0 6.95.893 10.28a5.348 5.348 0 0 0 3.776 3.775c3.329.893 16.685.893 16.685.893s13.356 0 16.685-.893a5.348 5.348 0 0 0 3.776-3.776c.893-3.33.893-10.28.893-10.28s0-6.95-.893-10.28h.003Z" fill="red"/><path d="m31.082 41.854 11.099-6.406-11.099-6.405v12.81Z" fill="#fff"/></svg>